<?xml version="1.0" encoding="UTF-8"?>
<svg version="1.1" xmlns="http://www.w3.org/2000/svg" width="1420" height="682">
<path d="M0 0 C468.6 0 937.2 0 1420 0 C1420 225.06 1420 450.12 1420 682 C951.4 682 482.8 682 0 682 C0 456.94 0 231.88 0 0 Z " fill="#FDFDFE" transform="translate(0,0)"/>
<path d="M0 0 C468.6 0 937.2 0 1420 0 C1420 225.06 1420 450.12 1420 682 C951.4 682 482.8 682 0 682 C0 456.94 0 231.88 0 0 Z M23.27515767 38.28806645 C21.0313657 41.30041767 21.59230136 45.02077195 21.62247658 48.63517666 C21.61811626 49.53227786 21.61375593 50.42937906 21.60926348 51.35366514 C21.59823488 54.3874924 21.60876457 57.42087202 21.61904907 60.45469666 C21.61559551 62.64058163 21.61083299 64.82646486 21.60486734 67.01234442 C21.59228616 73.04072499 21.59855997 79.068964 21.60782599 85.09734523 C21.61458717 91.59028219 21.60414984 98.08319405 21.59588623 104.5761261 C21.58270393 116.56811761 21.58442061 128.56006406 21.59262064 140.55205825 C21.60015858 151.62982412 21.60214149 162.70757335 21.5985527 173.78534126 C21.59832355 174.51931834 21.59809439 175.25329541 21.59785829 176.00951422 C21.59692432 178.9887574 21.59596913 181.96800057 21.594979 184.94724373 C21.58579559 212.91273121 21.59413236 240.87818977 21.61026969 268.84367279 C21.62450573 293.70333317 21.62323461 318.56294745 21.60888672 343.42260742 C21.59283118 371.33447574 21.58644829 399.24631849 21.59572351 427.15819079 C21.5966857 430.13240818 21.59762422 433.10662557 21.5985527 436.08084297 C21.59878994 436.81320353 21.59902717 437.5455641 21.59927159 438.3001174 C21.60268761 449.37173075 21.59868644 460.44332565 21.59111404 471.51493645 C21.58254857 484.10148633 21.58494406 496.68797992 21.60095628 509.27452343 C21.60886161 515.70124191 21.61189218 522.12786664 21.60200882 528.5545845 C21.59310808 534.43106633 21.59791814 540.30736698 21.61394148 546.18383224 C21.61730898 548.31636846 21.61555144 550.4489198 21.60831411 552.5814464 C21.59926636 555.46751308 21.60847183 558.35294914 21.62247658 561.2389822 C21.61545308 562.07791969 21.60842958 562.91685717 21.60119325 563.78121701 C21.63076215 566.80454791 21.74748834 569.41323202 22.95187416 572.21189505 C26.28776008 575.12427182 29.86328729 574.54718221 34.14606088 574.50139666 C35.57707339 574.50981056 35.57707339 574.50981056 37.03699525 574.51839444 C40.27096668 574.53244199 43.50418902 574.51770332 46.7381506 574.50336456 C49.07517115 574.50753276 51.41218912 574.5134545 53.74920127 574.52098203 C59.54201783 574.53501881 65.3346136 574.53027072 71.12742907 574.51792177 C78.11032528 574.50409632 85.09314089 574.51355114 92.07603638 574.52377842 C105.12761725 574.54221283 118.17913589 574.54156173 131.23072243 574.53065491 C144.46373635 574.5196637 157.69670927 574.51731738 170.92972565 574.52560425 C171.76441881 574.52612094 172.59911198 574.52663763 173.45909887 574.52716998 C176.85847448 574.52930297 180.25785003 574.53149779 183.65722554 574.53377108 C215.34754069 574.55494872 247.03782834 574.55635427 278.72814751 574.54518127 C280.1378216 574.5446845 280.1378216 574.5446845 281.57597395 574.54417769 C282.51725151 574.54384597 283.45852907 574.54351426 284.4283302 574.54317249 C313.07423845 574.53309043 341.72013534 574.53046921 370.366045 574.53526306 C372.28232987 574.53557298 374.19861474 574.5358816 376.11489962 574.53618894 C383.81515158 574.53743075 391.51540354 574.53870541 399.2156555 574.540028 C420.74279246 574.54369652 442.26992945 574.54597856 463.79706669 574.54717255 C464.77746563 574.54722713 465.75786458 574.54728171 466.76797258 574.54733795 C498.02046702 574.54897572 529.27295751 574.54446411 560.52545071 574.53577423 C562.0465245 574.53535274 562.0465245 574.53535274 563.59832706 574.53492273 C580.06709701 574.53034263 596.53586688 574.52546492 613.00463674 574.52056203 C678.32414706 574.50113659 743.64362459 574.50203679 808.96313477 574.52148438 C825.42229172 574.52636892 841.88144869 574.53121303 858.34060574 574.53577423 C859.86066902 574.53619692 859.86066902 574.53619692 861.41144066 574.53662815 C892.62967435 574.54524973 923.84790532 574.54891058 955.06614017 574.54717255 C956.04583785 574.54711821 957.02553552 574.54706387 958.034921 574.54700789 C979.53852782 574.54575811 1001.04213436 574.54322381 1022.5457409 574.53953053 C1030.23953351 574.5382139 1037.93332614 574.53696159 1045.62711877 574.53572769 C1047.54123125 574.53541814 1049.45534373 574.53510322 1051.36945621 574.53478291 C1080.00896948 574.5300036 1108.64846995 574.53408387 1137.28798163 574.54417769 C1138.69753152 574.54467447 1138.69753152 574.54467447 1140.13555717 574.54518127 C1141.07353269 574.545512 1142.01150821 574.54584273 1142.97790723 574.54618348 C1174.57561017 574.55720296 1206.17328007 574.55318531 1237.77097826 574.5320583 C1241.16027657 574.52984876 1244.54957491 574.52770196 1247.93887329 574.52560425 C1248.77069505 574.52508342 1249.60251681 574.52456259 1250.45954529 574.52402598 C1263.65962753 574.51611975 1276.85966888 574.52164705 1290.05974744 574.53268027 C1303.02239429 574.54323138 1315.98497176 574.53960228 1328.94760976 574.52062392 C1335.88890486 574.51085032 1342.83005799 574.50744272 1349.77134829 574.52224785 C1356.07444678 574.53507932 1362.37724951 574.52981111 1368.68032604 574.50952521 C1370.95749605 574.50546557 1373.23469003 574.50824131 1375.51184122 574.51834896 C1378.58445712 574.53102955 1381.65602412 574.51943586 1384.72858995 574.50139666 C1385.62071778 574.51095962 1386.51284561 574.52052259 1387.43200761 574.53037535 C1392.30946793 574.47337565 1392.30946793 574.47337565 1396.54812584 572.21189505 C1398.81568349 568.757326 1398.54794814 565.23302131 1398.50336456 561.2389822 C1398.50917833 560.34042756 1398.51499209 559.44187292 1398.52098203 558.51608935 C1398.53566434 555.48323153 1398.52165836 552.4511726 1398.50793457 549.4183197 C1398.51254022 547.23085713 1398.51889086 545.04339765 1398.52684355 542.85594469 C1398.54360598 536.82785623 1398.53525911 530.8000197 1398.52289867 524.7719301 C1398.51387879 518.27765876 1398.52780262 511.78343191 1398.53881836 505.28916931 C1398.55638887 493.29680395 1398.55410869 481.30451873 1398.54317249 469.31214863 C1398.5331202 458.23503809 1398.53047881 447.15795714 1398.53526306 436.08084297 C1398.5355686 435.34678951 1398.53587414 434.61273605 1398.53618894 433.85643855 C1398.53743424 430.87687544 1398.53870784 427.89731235 1398.540028 424.91774927 C1398.55227046 396.95395209 1398.54115969 368.99020635 1398.51964041 341.0264171 C1398.50065527 316.16659101 1398.5023574 291.30684686 1398.52148438 266.44702148 C1398.54288878 238.53368499 1398.5514043 210.62039395 1398.53903532 182.70705038 C1398.5377524 179.73314735 1398.53650104 176.75924431 1398.53526306 173.78534126 C1398.53494675 173.05305978 1398.53463044 172.32077829 1398.53430455 171.56630646 C1398.52974901 160.49378127 1398.53508621 149.42128888 1398.54518127 138.34876823 C1398.55659833 125.76329568 1398.55341514 113.17792321 1398.5320583 100.592462 C1398.52151368 94.16583599 1398.51748403 87.73937671 1398.53065491 81.31275177 C1398.542514 75.43754441 1398.53612389 69.56265942 1398.5147447 63.68748159 C1398.51025102 61.55432154 1398.5126062 59.42113463 1398.52224785 57.28799164 C1398.53429309 54.40332471 1398.52205857 51.51978329 1398.50336456 48.63517666 C1398.51272923 47.79389801 1398.52209389 46.95261935 1398.53174233 46.08584741 C1398.54458615 41.85686586 1398.54458615 41.85686586 1396.54812584 38.28810495 C1392.66781533 36.32656636 1389.01890601 36.58946068 1384.72858995 36.62395251 C1383.7731793 36.61974556 1382.81776864 36.61553861 1381.83340614 36.61120417 C1378.60079728 36.60068437 1375.36861145 36.6117151 1372.13600826 36.62247658 C1369.79752119 36.61934986 1367.45903557 36.61490813 1365.12055323 36.60926348 C1359.32802401 36.59874279 1353.53561908 36.60229248 1347.74309049 36.61155868 C1340.75971812 36.6219336 1333.776391 36.61483436 1326.79301902 36.60716619 C1313.74087335 36.59334466 1300.68876269 36.59382664 1287.63661385 36.60200882 C1274.40402643 36.61025367 1261.17146208 36.61201079 1247.93887329 36.60579681 C1247.10405095 36.6054093 1246.26922862 36.60502178 1245.40910863 36.60462252 C1242.00918296 36.60302276 1238.60925731 36.60137665 1235.20933169 36.59967169 C1203.51806911 36.58379064 1171.82682201 36.58273331 1140.13555717 36.59111404 C1139.19585724 36.59136243 1138.25615731 36.59161082 1137.28798163 36.59186673 C1136.346787 36.59211552 1135.40559236 36.59236431 1134.43587668 36.59262064 C1105.790629 36.60018267 1077.14538771 36.60214786 1048.50013924 36.5985527 C1046.58377721 36.59832027 1044.66741518 36.5980888 1042.75105315 36.59785829 C1035.05048126 36.59692694 1027.34990938 36.59597094 1019.6493375 36.594979 C998.12160512 36.59222765 976.59387271 36.59051609 955.06614017 36.58962059 C954.08572758 36.58957965 953.10531499 36.58953872 952.09519293 36.58949654 C920.84366289 36.58826826 889.59213508 36.59165167 858.34060574 36.59816933 C856.81963732 36.59848545 856.81963732 36.59848545 855.26794226 36.59880795 C838.80036906 36.60224302 822.3327959 36.60590131 805.86522275 36.60957848 C740.54564037 36.62414865 675.22607644 36.62347134 609.90649414 36.60888672 C593.44614635 36.60522332 576.98579855 36.60159024 560.52545071 36.59816933 C559.00528175 36.59785231 559.00528175 36.59785231 557.45440231 36.59752889 C526.23529014 36.59106297 495.01617951 36.58831701 463.79706669 36.58962059 C462.32754056 36.58968172 462.32754056 36.58968172 460.82832703 36.58974408 C439.3253434 36.59068141 417.82235994 36.5925821 396.31937647 36.5953521 C388.62590075 36.59633958 380.93242503 36.59727881 373.23894931 36.59820423 C371.32491556 36.5984364 369.41088182 36.59867259 367.49684807 36.59891282 C338.856554 36.60249754 310.21626712 36.59943664 281.57597395 36.59186673 C280.63619122 36.59161834 279.6964085 36.59136996 278.72814751 36.59111404 C277.7900893 36.590866 276.8520311 36.59061795 275.88554689 36.59036239 C244.28902657 36.58209881 212.69252482 36.58510896 181.09600716 36.60095628 C177.70724668 36.60261343 174.31848617 36.60422353 170.92972565 36.60579681 C170.09803409 36.60618743 169.26634254 36.60657805 168.40944821 36.60698051 C155.20865128 36.61291139 142.00787735 36.60876343 128.80708249 36.6004898 C115.84545174 36.5925787 102.88386003 36.59529419 89.92223426 36.60953206 C82.98082523 36.61686496 76.03949609 36.61941222 69.09808975 36.60831411 C62.79609776 36.59869709 56.49427226 36.60263207 50.19229266 36.61785609 C47.91438659 36.62090317 45.63646705 36.61881309 43.35857154 36.61123828 C40.28752777 36.6017425 37.21707623 36.61041006 34.14606088 36.62395251 C33.25154232 36.61678028 32.35702375 36.60960806 31.43539855 36.60221849 C27.08738651 36.50876837 27.08738651 36.50876837 23.27515767 38.28806645 Z " fill="#63738A" transform="translate(0,0)"/>
<path d="M0 0 C0.89788239 -0.00335861 1.79576477 -0.00671722 2.72085571 -0.01017761 C5.69502133 -0.01969175 8.66913065 -0.02163106 11.64331055 -0.02270508 C13.70973229 -0.02591771 15.77615381 -0.02928178 17.84257507 -0.03279114 C22.17777026 -0.03878382 26.5129455 -0.04063093 30.84814453 -0.04003906 C36.3998474 -0.03993752 41.95142215 -0.0535813 47.50309467 -0.07081127 C51.77278733 -0.08193787 56.0424491 -0.08395805 60.31215477 -0.08342934 C62.35864897 -0.08460878 64.40514399 -0.08902855 66.45162392 -0.0967617 C69.3167984 -0.1065733 72.18169593 -0.10367869 75.046875 -0.09765625 C76.31187584 -0.10608551 76.31187584 -0.10608551 77.60243225 -0.11468506 C82.88350552 -0.08651798 87.86921166 0.10804794 92.0456543 3.73120117 C92.51487305 4.3215918 92.9840918 4.91198242 93.4675293 5.52026367 C93.94706055 6.10549805 94.4265918 6.69073242 94.9206543 7.29370117 C98.54252116 12.46467976 99.09899462 16.91874266 98.2175293 23.14526367 C96.22127343 28.64950316 92.29259887 32.76105003 87.41775513 35.88583374 C79.81333541 38.87850811 71.10961974 38.02041894 63.05737305 37.97729492 C60.98189228 37.98388428 58.9064161 37.99210471 56.83094788 38.00187683 C52.49266597 38.01519705 48.15512498 38.00644331 43.81689453 37.98242188 C38.26932751 37.9538141 32.72388245 37.98393591 27.17650509 38.0310564 C22.8945916 38.06030124 18.61318235 38.05650266 14.33120918 38.04303551 C12.28635564 38.04088846 10.24146146 38.04933163 8.19669914 38.06876564 C-9.75354043 38.21054861 -9.75354043 38.21054861 -14.94042969 33.83544922 C-19.42954782 28.72769897 -22.5742836 23.09635589 -22.1652832 16.15698242 C-20.87206754 9.36100217 -17.3252002 5.03696736 -11.7824707 1.14526367 C-7.8498031 -0.16562553 -4.09954487 -0.00218724 0 0 Z " fill="#4C5A6C" transform="translate(671.782470703125,382.854736328125)"/>
<path d="M0 0 C134.64 0 269.28 0 408 0 C403.5673595 3.32448038 402.56535298 3.37412267 397.26086044 3.36914349 C396.24091317 3.37433579 396.24091317 3.37433579 395.20036089 3.37963298 C392.91116591 3.38760347 390.62259799 3.37409099 388.33343506 3.36076355 C386.68006118 3.36207124 385.02668791 3.36469699 383.37331796 3.36853105 C378.82164661 3.37525513 374.2701861 3.36321698 369.71854162 3.34819686 C364.81331726 3.33526842 359.90810525 3.3396237 355.00286865 3.34190369 C346.50145388 3.34347844 338.00010806 3.33404809 329.49871063 3.31719017 C317.20705471 3.29283216 304.91543221 3.28499818 292.62375477 3.2812262 C272.68241916 3.27465669 252.74112032 3.25468197 232.79980469 3.22631836 C213.42610865 3.19879072 194.05242258 3.1775508 174.67871094 3.16479492 C172.88808993 3.16361267 172.88808993 3.16361267 171.06129476 3.16240653 C165.07274886 3.15849148 159.08420289 3.15470034 153.09565687 3.15097082 C103.39707917 3.11985936 53.69854137 3.06700996 4 3 C4 2.34 4 1.68 4 1 C2.68 0.67 1.36 0.34 0 0 Z " fill="#E9E9E9" transform="translate(968,162)"/>
<path d="M0 0 C132.66 0 265.32 0 402 0 C402 0.66 402 1.32 402 2 C397.63837489 2.83772306 393.53135615 3.12009582 389.09285164 3.10743046 C388.41902097 3.10689593 387.7451903 3.1063614 387.05094051 3.10581067 C384.79483746 3.10278439 382.53882639 3.0925215 380.28274536 3.08229065 C378.64827181 3.0785955 377.01379719 3.07534657 375.37932193 3.07250541 C370.88923561 3.06340882 366.39918989 3.04797896 361.90912533 3.03152263 C357.06665906 3.01488159 352.22417935 3.00410313 347.38169861 2.99261475 C338.99219737 2.97190797 330.60271356 2.94748199 322.21323013 2.92053413 C310.08342578 2.88157736 297.95361111 2.84822312 285.8237866 2.81623887 C266.1442309 2.76419502 246.46469095 2.70761647 226.78515625 2.64819336 C207.66764947 2.59047701 188.55013845 2.53489187 169.43261719 2.48217773 C168.25433028 2.47892802 167.07604336 2.4756783 165.86205079 2.4723301 C159.95096654 2.45604048 154.03988219 2.4397928 148.12879777 2.42356598 C99.08584576 2.28888142 50.04291701 2.1468405 1 2 C0.67 1.34 0.34 0.68 0 0 Z " fill="#E7E8E9" transform="translate(508,537)"/>
<path d="M0 0 C4 2 4 2 6 5 C6.33 3.35 6.66 1.7 7 0 C7.99 0 8.98 0 10 0 C10 0.66 10 1.32 10 2 C16.27 2 22.54 2 29 2 C29.33 3.32 29.66 4.64 30 6 C30.66 6 31.32 6 32 6 C32.33 4.68 32.66 3.36 33 2 C37.95 2.99 37.95 2.99 43 4 C43 2.68 43 1.36 43 0 C44.98 0 46.96 0 49 0 C49.95024979 3.69541586 49.95024979 6.30458414 49 10 C47.02 10 45.04 10 43 10 C43 10.66 43 11.32 43 12 C36.13198725 12.12049145 29.73253651 11.4281138 23 10 C23 8.02 23 6.04 23 4 C22.34 4 21.68 4 21 4 C21 5.98 21 7.96 21 10 C16.25456167 11.58181278 14.05856742 12.31236416 9.1875 10.875 C6.21233056 9.12490033 4.72206419 7.93763892 3 5 C2.67 6.65 2.34 8.3 2 10 C1.34 10 0.68 10 0 10 C0 6.7 0 3.4 0 0 Z " fill="#D1D3D9" transform="translate(519,128)"/>
<path d="M0 0 C2.64 0 5.28 0 8 0 C8 1.98 8 3.96 8 6 C9.175625 5.690625 9.175625 5.690625 10.375 5.375 C11.674375 5.189375 11.674375 5.189375 13 5 C15 7 15 7 15.25 9.4375 C15 12 15 12 13 15 C10.38623047 15.34057617 10.38623047 15.34057617 7.1171875 15.29296875 C5.95058594 15.28330078 4.78398438 15.27363281 3.58203125 15.26367188 C2.35871094 15.23853516 1.13539062 15.21339844 -0.125 15.1875 C-1.35605469 15.17396484 -2.58710937 15.16042969 -3.85546875 15.14648438 C-6.90383082 15.1110383 -9.95196909 15.05723007 -13 15 C-13 10.38 -13 5.76 -13 1 C-5.125 1 -5.125 1 -1 4 C-0.67 2.68 -0.34 1.36 0 0 Z " fill="#CFF3F8" transform="translate(1231,72)"/>
<path d="M0 0 C2.1640625 -0.29296875 2.1640625 -0.29296875 4.625 -0.1875 C5.44226563 -0.16042969 6.25953125 -0.13335937 7.1015625 -0.10546875 C8.04128906 -0.05326172 8.04128906 -0.05326172 9 0 C9 1.98 9 3.96 9 6 C10.175625 5.690625 10.175625 5.690625 11.375 5.375 C12.674375 5.189375 12.674375 5.189375 14 5 C16 7 16 7 16.25 9.5 C16 12 16 12 14 14 C13.01 13.67 12.02 13.34 11 13 C11.66 13 12.32 13 13 13 C13 11.02 13 9.04 13 7 C12.01 7.33 11.02 7.66 10 8 C9.67 9.98 9.34 11.96 9 14 C8.01 14 7.02 14 6 14 C5.67 10.37 5.34 6.74 5 3 C3.35 3.33 1.7 3.66 0 4 C1.32 4.33 2.64 4.66 4 5 C4 8.3 4 11.6 4 15 C3.05125 14.814375 2.1025 14.62875 1.125 14.4375 C-1.89868793 13.71313368 -1.89868793 13.71313368 -4 15 C-6.6723621 15.13415472 -9.32250488 15.04318541 -12 15 C-12 10.38 -12 5.76 -12 1 C-5 1 -5 1 -2 3 C-1.34 2.01 -0.68 1.02 0 0 Z " fill="#78B1BF" transform="translate(310,72)"/>
<path d="M0 0 C1.65 0 3.3 0 5 0 C5.66 1.98 6.32 3.96 7 6 C7.99 5.34 8.98 4.68 10 4 C12.41015625 3.734375 12.41015625 3.734375 15.0625 3.75 C15.94035156 3.74484375 16.81820312 3.7396875 17.72265625 3.734375 C20 4 20 4 22 6 C22.3125 9.5 22.3125 9.5 22 13 C19 15 19 15 16 15 C15.67 16.98 15.34 18.96 15 21 C13.68 21 12.36 21 11 21 C10.67 19.02 10.34 17.04 10 15 C8.68 15 7.36 15 6 15 C5.67 14.01 5.34 13.02 5 12 C2.03 11.505 2.03 11.505 -1 11 C-1 12.32 -1 13.64 -1 15 C-2.32 15 -3.64 15 -5 15 C-3.78623966 9.67812773 -2.27376292 4.96093728 0 0 Z " fill="#C1E4E8" transform="translate(744,75)"/>
<path d="M0 0 C0.99 0 1.98 0 3 0 C3.66 0.99 4.32 1.98 5 3 C8.4641287 3.9072718 11.6992415 4.01497109 15.25 3.9375 C19 4 19 4 21 6 C21.26991906 8.68839385 21.08737357 11.29141936 21 14 C20.01 14 19.02 14 18 14 C18 11.69 18 9.38 18 7 C17.01 7 16.02 7 15 7 C15 9.64 15 12.28 15 15 C5.70356897 16.49877102 5.70356897 16.49877102 1 14 C-0.72082924 14 -2.34228586 14.5722028 -4 15 C-5.09845718 10.67940177 -6.17812739 6.38332057 -7 2 C-6.01 2.33 -5.02 2.66 -4 3 C-4 3.99 -4 4.98 -4 6 C-3.34 6 -2.68 6 -2 6 C-1.34 4.02 -0.68 2.04 0 0 Z " fill="#DDF7F8" transform="translate(198,72)"/>
<path d="M0 0 C4.95 0 9.9 0 15 0 C15 2.64 15 5.28 15 8 C15.99 8 16.98 8 18 8 C17.34 6.35 16.68 4.7 16 3 C17.32 3.66 18.64 4.32 20 5 C20.33 4.34 20.66 3.68 21 3 C22.65 3 24.3 3 26 3 C26.33 2.34 26.66 1.68 27 1 C28.65 1.66 30.3 2.32 32 3 C32 3.66 32 4.32 32 5 C31.01 5 30.02 5 29 5 C29 5.99 29 6.98 29 8 C29.99 8 30.98 8 32 8 C32 8.66 32 9.32 32 10 C24.375 12.125 24.375 12.125 21 11 C20.34 10.34 19.68 9.68 19 9 C18.67 9.33 18.34 9.66 18 10 C16.56806079 10.20912703 15.12858946 10.36791979 13.6875 10.5 C11.36691694 10.71479777 9.2542759 10.92376738 7.01953125 11.59375 C5 12 5 12 0 11 C0 7.37 0 3.74 0 0 Z " fill="#C4C4C7" transform="translate(574,353)"/>
<path d="M0 0 C0.33 0.99 0.66 1.98 1 3 C3.97 3.495 3.97 3.495 7 4 C7.33 3.01 7.66 2.02 8 1 C9.32 1 10.64 1 12 1 C12 5.62 12 10.24 12 15 C1.46698113 15.12539308 1.46698113 15.12539308 -1.109375 14.43359375 C-3.35616343 13.76798181 -3.35616343 13.76798181 -7 15 C-7 11.37 -7 7.74 -7 4 C-8.32 4 -9.64 4 -11 4 C-10.67 3.01 -10.34 2.02 -10 1 C-6.78548731 -0.60725635 -3.56387464 -0.05748185 0 0 Z " fill="#D4F1F3" transform="translate(1177,72)"/>
<path d="M0 0 C0.71027344 0.08378906 1.42054688 0.16757813 2.15234375 0.25390625 C3.53099609 0.40666016 3.53099609 0.40666016 4.9375 0.5625 C5.85402344 0.66691406 6.77054687 0.77132812 7.71484375 0.87890625 C8.84599609 0.93884766 8.84599609 0.93884766 10 1 C10.33 0.67 10.66 0.34 11 0 C12.97619447 -0.12514928 14.95738173 -0.1757276 16.9375 -0.1875 C18.01902344 -0.20167969 19.10054688 -0.21585937 20.21484375 -0.23046875 C23 0 23 0 25 2 C25.26991906 4.68839385 25.08737357 7.29141936 25 10 C22.72975032 10.08097324 20.45867925 10.13917704 18.1875 10.1875 C16.92292969 10.22230469 15.65835937 10.25710937 14.35546875 10.29296875 C11 10 11 10 9.05078125 8.48828125 C8.70402344 7.99714844 8.35726563 7.50601563 8 7 C8 7.99 8 8.98 8 10 C5.36 10.33 2.72 10.66 0 11 C-0.66 9.35 -1.32 7.7 -2 6 C-1.34 5.34 -0.68 4.68 0 4 C1.32 4 2.64 4 4 4 C4 3.34 4 2.68 4 2 C2.35 2 0.7 2 -1 2 C-0.67 1.34 -0.34 0.68 0 0 Z " fill="#B8DEE8" transform="translate(329,77)"/>
<path d="M0 0 C3.87630512 0.07682767 5.90920549 1.2419982 9.1875 3.3125 C12.39666171 3.56386033 12.39666171 3.56386033 15.1875 3.3125 C15.5175 3.9725 15.8475 4.6325 16.1875 5.3125 C14.8675 5.3125 13.5475 5.3125 12.1875 5.3125 C12.1875 5.9725 12.1875 6.6325 12.1875 7.3125 C13.5075 7.9725 14.8275 8.6325 16.1875 9.3125 C15.8575 10.6325 15.5275 11.9525 15.1875 13.3125 C10.63365385 13.68173077 10.63365385 13.68173077 8.375 11.8125 C7.983125 11.3175 7.59125 10.8225 7.1875 10.3125 C6.1975 11.7975 6.1975 11.7975 5.1875 13.3125 C2.83984375 13.640625 2.83984375 13.640625 0.125 13.5625 C-0.77347656 13.54703125 -1.67195312 13.5315625 -2.59765625 13.515625 C-4.8125 13.3125 -4.8125 13.3125 -5.8125 12.3125 C-5.9370486 10.67019636 -5.98818524 9.02197724 -6 7.375 C-6.01417969 6.47910156 -6.02835938 5.58320313 -6.04296875 4.66015625 C-5.62761676 0.42919782 -4.05077323 0.33203059 0 0 Z " fill="#D1D0D0" transform="translate(523.8125,349.6875)"/>
<path d="M0 0 C1.65 0.33 3.3 0.66 5 1 C5 1.99 5 2.98 5 4 C6.32 4.33 7.64 4.66 9 5 C9 8.63 9 12.26 9 16 C5.32288714 16.73542257 2.53130679 17.13618137 -1.125 17.125 C-2.39730469 17.12886719 -2.39730469 17.12886719 -3.6953125 17.1328125 C-6 17 -6 17 -9 16 C-9.33 14.35 -9.66 12.7 -10 11 C-8.35 10.67 -6.7 10.34 -5 10 C-5 9.34 -5 8.68 -5 8 C-6.32 7.67 -7.64 7.34 -9 7 C-6.6875 6.3125 -6.6875 6.3125 -4 6 C-3.01 6.99 -2.02 7.98 -1 9 C-0.67 6.03 -0.34 3.06 0 0 Z " fill="#B0D9E1" transform="translate(1201,71)"/>
<path d="M0 0 C1.2684375 0.2475 1.2684375 0.2475 2.5625 0.5 C6.09138856 1.01329288 9.43932689 1.07121346 13 1 C15.46977731 7.39236479 15.46977731 7.39236479 14 11 C12.41727399 12.58272601 10.61965997 12.34735747 8.4375 12.5625 C7.61121094 12.64628906 6.78492188 12.73007812 5.93359375 12.81640625 C5.29550781 12.87699219 4.65742187 12.93757813 4 13 C4 12.34 4 11.68 4 11 C2.35 11 0.7 11 -1 11 C-1 9.02 -1 7.04 -1 5 C-1.99 5.495 -1.99 5.495 -3 6 C-3.65555119 8.52733235 -3.65555119 8.52733235 -4 11 C-4.66 11 -5.32 11 -6 11 C-6 8.36 -6 5.72 -6 3 C-4.02 3 -2.04 3 0 3 C0 2.01 0 1.02 0 0 Z " fill="#EFEDEF" transform="translate(541,473)"/>
<path d="M0 0 C0.66 0 1.32 0 2 0 C2 1.32 2 2.64 2 4 C3.32 4 4.64 4 6 4 C7.35439668 6.70879335 7.06501451 9.00933268 7 12 C6.34 12 5.68 12 5 12 C5 10.02 5 8.04 5 6 C4.01 6 3.02 6 2 6 C2 7.98 2 9.96 2 12 C-2.95 12 -7.9 12 -13 12 C-13 9.36 -13 6.72 -13 4 C-13.66 4 -14.32 4 -15 4 C-15 3.01 -15 2.02 -15 1 C-12.36 1 -9.72 1 -7 1 C-7 1.99 -7 2.98 -7 4 C-5.35 4.33 -3.7 4.66 -2 5 C-1.34 3.35 -0.68 1.7 0 0 Z " fill="#D1D0D3" transform="translate(533,281)"/>
<path d="M0 0 C1.32 0 2.64 0 4 0 C4.33 2.64 4.66 5.28 5 8 C5.66 7.01 6.32 6.02 7 5 C7.66 5 8.32 5 9 5 C8.814375 5.928125 8.62875 6.85625 8.4375 7.8125 C7.75876119 11.01343771 7.75876119 11.01343771 9 14 C7.68 13.67 6.36 13.34 5 13 C5 13.66 5 14.32 5 15 C2.87527424 15.05386629 0.75016348 15.09273071 -1.375 15.125 C-3.15003906 15.15980469 -3.15003906 15.15980469 -4.9609375 15.1953125 C-8 15 -8 15 -10 13 C-10.26991906 10.31160615 -10.08737357 7.70858064 -10 5 C-9.01 5 -8.02 5 -7 5 C-7 7.31 -7 9.62 -7 12 C-6.01 12 -5.02 12 -4 12 C-4 9.69 -4 7.38 -4 5 C-2.68 5 -1.36 5 0 5 C0 3.35 0 1.7 0 0 Z " fill="#B1DFDD" transform="translate(163,72)"/>
<path d="M0 0 C2.64 0 5.28 0 8 0 C10 2 10 2 10.125 4.625 C10.08375 5.40875 10.0425 6.1925 10 7 C9.34 7 8.68 7 8 7 C8 7.66 8 8.32 8 9 C8.99 9 9.98 9 11 9 C11.125 11.375 11.125 11.375 11 14 C9 16 9 16 6.8359375 16.1953125 C4.55729167 16.13020833 2.27864583 16.06510417 0 16 C0 10.72 0 5.44 0 0 Z " fill="#1F7772" transform="translate(631,74)"/>
<path d="M0 0 C1.32 0.33 2.64 0.66 4 1 C4.33 2.65 4.66 4.3 5 6 C5.33 5.34 5.66 4.68 6 4 C7.98 4 9.96 4 12 4 C12 5.98 12 7.96 12 10 C12.66 10 13.32 10 14 10 C14 8.35 14 6.7 14 5 C14.66 5 15.32 5 16 5 C16 7.31 16 9.62 16 12 C3.33029613 14.66514806 3.33029613 14.66514806 -2 12 C-2.28571429 3.42857143 -2.28571429 3.42857143 0 0 Z " fill="#DADDE2" transform="translate(564,472)"/>
<path d="M0 0 C0.99 0 1.98 0 3 0 C3.33 2.97 3.66 5.94 4 9 C4.66 7.68 5.32 6.36 6 5 C7.32 5 8.64 5 10 5 C10 5.66 10 6.32 10 7 C9.34 7 8.68 7 8 7 C7.83312552 9.41645782 7.83312552 9.41645782 8 12 C8.66 12.66 9.32 13.32 10 14 C10.99 13.34 11.98 12.68 13 12 C12.67 11.67 12.34 11.34 12 11 C11.95936168 9.33382885 11.957279 7.66611905 12 6 C13.98 5.67 15.96 5.34 18 5 C18.33 5.99 18.66 6.98 19 8 C17.68 8 16.36 8 15 8 C15 8.66 15 9.32 15 10 C16.32 10.33 17.64 10.66 19 11 C19 12.32 19 13.64 19 15 C16.5558206 16.2220897 14.78970128 16.23641068 12.0625 16.3125 C11.18722656 16.34988281 10.31195312 16.38726562 9.41015625 16.42578125 C7 16 7 16 5.18359375 13.98046875 C4.79300781 13.32691406 4.40242187 12.67335938 4 12 C3.67 13.32 3.34 14.64 3 16 C2.01 16 1.02 16 0 16 C0 10.72 0 5.44 0 0 Z " fill="#428C90" transform="translate(672,74)"/>
<path d="M0 0 C0.99 0 1.98 0 3 0 C3.33 1.98 3.66 3.96 4 6 C4.33 5.34 4.66 4.68 5 4 C5.99 4 6.98 4 8 4 C7.814375 4.928125 7.62875 5.85625 7.4375 6.8125 C6.75876119 10.01343771 6.75876119 10.01343771 8 13 C5.39761763 13.41626139 2.79534235 13.80854441 0.1875 14.1875 C-0.55048828 14.30802734 -1.28847656 14.42855469 -2.04882812 14.55273438 C-7.47206704 15.3134602 -7.47206704 15.3134602 -10 13.8125 C-11.78477981 10.5775866 -11.17855374 7.6305927 -11 4 C-10.34 4 -9.68 4 -9 4 C-9 6.31 -9 8.62 -9 11 C-8.01 11 -7.02 11 -6 11 C-6 8.69 -6 6.38 -6 4 C-4.68 4 -3.36 4 -2 4 C-2 6.97 -2 9.94 -2 13 C-1.34 13 -0.68 13 0 13 C0 8.71 0 4.42 0 0 Z " fill="#8BBDBC" transform="translate(1094,73)"/>
<path d="M0 0 C6.15234375 -0.09765625 6.15234375 -0.09765625 8 0 C9 1 9 1 9.09765625 2.84765625 C9.06510417 4.8984375 9.03255208 6.94921875 9 9 C5.24600202 10.2039337 1.66782588 10.09877617 -2.25 10.0625 C-3.51328125 10.05347656 -4.7765625 10.04445313 -6.078125 10.03515625 C-7.04234375 10.02355469 -8.0065625 10.01195313 -9 10 C-9.38218767 8.34385343 -9.71395102 6.67542976 -10 5 C-9 4 -9 4 -6.4375 3.9375 C-5.2309375 3.9684375 -5.2309375 3.9684375 -4 4 C-4 3.34 -4 2.68 -4 2 C-5.65 2 -7.3 2 -9 2 C-9 1.67 -9 1.34 -9 1 C-6.125 0.875 -6.125 0.875 -3 1 C-2.34 1.66 -1.68 2.32 -1 3 C-0.67 2.01 -0.34 1.02 0 0 Z " fill="#BDE4E6" transform="translate(1139,77)"/>
<path d="M0 0 C7 0 7 0 9.4375 1.0625 C11 3 11 3 11.5625 6.4375 C11 10 11 10 8.875 12.4375 C6 14 6 14 0 14 C0 9.38 0 4.76 0 0 Z " fill="#6EADBC" transform="translate(1218,73)"/>
<path d="M0 0 C3.96739888 0.33061657 6.34340071 1.3183931 9.75 3.3125 C9.75 5.6225 9.75 7.9325 9.75 10.3125 C7.81257659 10.33953381 5.87504521 10.35891125 3.9375 10.375 C2.85855469 10.38660156 1.77960937 10.39820313 0.66796875 10.41015625 C-2.25 10.3125 -2.25 10.3125 -5.25 9.3125 C-5.375 5.9375 -5.375 5.9375 -5.25 2.3125 C-3.25 0.3125 -3.25 0.3125 0 0 Z " fill="#EEEFF4" transform="translate(523.25,473.6875)"/>
<path d="M0 0 C6.8359375 -0.1953125 6.8359375 -0.1953125 9 0 C11 2 11 2 11.3125 4.9375 C11 8 11 8 9.8125 9.9375 C8 11 8 11 5.3125 10.6875 C4.549375 10.460625 3.78625 10.23375 3 10 C3 12.31 3 14.62 3 17 C2.01 17 1.02 17 0 17 C0 11.39 0 5.78 0 0 Z " fill="#39869E" transform="translate(769,79)"/>
<path d="M0 0 C0.99 0 1.98 0 3 0 C3 4.62 3 9.24 3 14 C-5.3984375 14.29296875 -5.3984375 14.29296875 -8 14 C-10.14915785 10.77626323 -10.38286803 9.73296326 -10 6 C-9.34 5.34 -8.68 4.68 -8 4 C-5.0574037 4.30652045 -2.65457692 4.67271154 0 6 C0 4.02 0 2.04 0 0 Z " fill="#82BAC3" transform="translate(1186,73)"/>
<path d="M0 0 C0.66 0 1.32 0 2 0 C2 2.64 2 5.28 2 8 C2.99 8 3.98 8 5 8 C4.34 6.35 3.68 4.7 3 3 C4.32 3.66 5.64 4.32 7 5 C7.33 4.34 7.66 3.68 8 3 C9.65 3 11.3 3 13 3 C13.33 2.34 13.66 1.68 14 1 C16.475 1.99 16.475 1.99 19 3 C19 3.66 19 4.32 19 5 C18.01 5 17.02 5 16 5 C16 5.99 16 6.98 16 8 C16.99 8 17.98 8 19 8 C19 8.66 19 9.32 19 10 C11.375 12.125 11.375 12.125 8 11 C7.34 10.34 6.68 9.68 6 9 C5.67 9.33 5.34 9.66 5 10 C3.35 10 1.7 10 0 10 C0 6.7 0 3.4 0 0 Z " fill="#7A7C7C" transform="translate(587,353)"/>
<path d="M0 0 C1.32 0 2.64 0 4 0 C4.33 0.99 4.66 1.98 5 3 C5.99 3.33 6.98 3.66 8 4 C8 6.31 8 8.62 8 11 C9.32 11 10.64 11 12 11 C12 8.69 12 6.38 12 4 C12.66 4 13.32 4 14 4 C14 6.97 14 9.94 14 13 C9.38 13.33 4.76 13.66 0 14 C0 9.38 0 4.76 0 0 Z " fill="#88BEC4" transform="translate(259,73)"/>
<path d="M0 0 C1.98 0 3.96 0 6 0 C6.95024979 3.69541586 6.95024979 6.30458414 6 10 C4.02 10 2.04 10 0 10 C0 10.66 0 11.32 0 12 C-1.258125 12.04125 -2.51625 12.0825 -3.8125 12.125 C-4.52019531 12.14820313 -5.22789062 12.17140625 -5.95703125 12.1953125 C-8 12 -8 12 -11 10 C-9.35 10 -7.7 10 -6 10 C-6 8.02 -6 6.04 -6 4 C-3 3 -3 3 0 4 C0 2.68 0 1.36 0 0 Z " fill="#E2E6E9" transform="translate(562,128)"/>
<path d="M0 0 C0.66 0 1.32 0 2 0 C2.33 1.65 2.66 3.3 3 5 C3.33 4.34 3.66 3.68 4 3 C5.65 3 7.3 3 9 3 C9.33 4.98 9.66 6.96 10 9 C10.33 9 10.66 9 11 9 C11.33 7.35 11.66 5.7 12 4 C12.66 4 13.32 4 14 4 C14.33 7.63 14.66 11.26 15 15 C13.68 15.33 12.36 15.66 11 16 C10.34 15.01 9.68 14.02 9 13 C8.01 13 7.02 13 6 13 C4.3125 11.5 4.3125 11.5 3 10 C2.01 10.33 1.02 10.66 0 11 C0 7.37 0 3.74 0 0 Z " fill="#F2F6F8" transform="translate(580,127)"/>
<path d="M0 0 C2.64 0 5.28 0 8 0 C10 2 10 2 10.3125 5.5 C10.1578125 7.2325 10.1578125 7.2325 10 9 C7 11 7 11 4 11 C3.67 12.98 3.34 14.96 3 17 C2.01 17 1.02 17 0 17 C0 11.39 0 5.78 0 0 Z " fill="#478FA1" transform="translate(756,79)"/>
<path d="M0 0 C2.31 0 4.62 0 7 0 C7.66 0.66 8.32 1.32 9 2 C8.68404492 3.67004829 8.34820041 5.33637583 8 7 C8.31088368 8.67099977 8.64080332 10.33871537 9 12 C8.67 12.66 8.34 13.32 8 14 C5.36 14 2.72 14 0 14 C0 9.38 0 4.76 0 0 Z " fill="#50979F" transform="translate(238,73)"/>
<path d="M0 0 C3.3 0 6.6 0 10 0 C10.33 1.32 10.66 2.64 11 4 C11.66 4 12.32 4 13 4 C13.33 2.68 13.66 1.36 14 0 C15.32 0.33 16.64 0.66 18 1 C18 3.31 18 5.62 18 8 C8.58997722 9.33257403 8.58997722 9.33257403 4 8 C4 6.02 4 4.04 4 2 C3.34 2 2.68 2 2 2 C2 3.98 2 5.96 2 8 C1.34 8 0.68 8 0 8 C0 5.36 0 2.72 0 0 Z " fill="#AEB1B3" transform="translate(538,130)"/>
<path d="M0 0 C1.32 0 2.64 0 4 0 C4 0.66 4 1.32 4 2 C3.01 2.33 2.02 2.66 1 3 C0.26676204 5.01508358 0.26676204 5.01508358 0 7 C1.65 7 3.3 7 5 7 C5 6.34 5 5.68 5 5 C6.98 4.67 8.96 4.34 11 4 C11 3.34 11 2.68 11 2 C9.68 2 8.36 2 7 2 C7 1.34 7 0.68 7 0 C9.31 0.33 11.62 0.66 14 1 C14 4.3 14 7.6 14 11 C11.72844502 10.91297874 9.45769257 10.80480478 7.1875 10.6875 C5.92292969 10.62949219 4.65835937 10.57148437 3.35546875 10.51171875 C0 10 0 10 -1.9609375 8.6171875 C-3 7 -3 7 -2.8125 4.4375 C-2 2 -2 2 0 0 Z " fill="#B0DCE8" transform="translate(1260,77)"/>
<path d="M0 0 C2.97 0 5.94 0 9 0 C9 8.1 9 8.1 8 12 C6 13 6 13 0 13 C0 8.71 0 4.42 0 0 Z " fill="#519992" transform="translate(1071,74)"/>
<path d="M0 0 C4.95 0.33 9.9 0.66 15 1 C14.01 1.66 13.02 2.32 12 3 C12 4.32 12 5.64 12 7 C12.99 7.66 13.98 8.32 15 9 C12.625 9.125 12.625 9.125 10 9 C9.34 8.34 8.68 7.68 8 7 C8 7.99 8 8.98 8 10 C5.36 10.33 2.72 10.66 0 11 C-0.66 9.35 -1.32 7.7 -2 6 C-1.34 5.34 -0.68 4.68 0 4 C1.32 4 2.64 4 4 4 C4 3.34 4 2.68 4 2 C2.35 2 0.7 2 -1 2 C-0.67 1.34 -0.34 0.68 0 0 Z " fill="#ACDCE7" transform="translate(329,77)"/>
<path d="M0 0 C2 2 2 2 2.375 4.4375 C2 7 2 7 0.375 8.875 C-2.81862551 10.38776998 -4.64702485 9.94757993 -8 9 C-10 7 -10 7 -10.375 4.5625 C-10 2 -10 2 -8.375 0.125 C-5.18137449 -1.38776998 -3.35297515 -0.94757993 0 0 Z " fill="#43898C" transform="translate(654,80)"/>
<path d="M0 0 C1.670625 0.061875 1.670625 0.061875 3.375 0.125 C3.45614106 1.89507714 3.51425505 3.66622098 3.5625 5.4375 C3.59730469 6.42363281 3.63210938 7.40976563 3.66796875 8.42578125 C3.375 11.125 3.375 11.125 2.0625 12.96875 C-0.4546833 14.6934867 -2.65992731 14.32267151 -5.625 14.125 C-5.625 13.465 -5.625 12.805 -5.625 12.125 C-4.820625 12.00125 -4.01625 11.8775 -3.1875 11.75 C-2.341875 11.54375 -1.49625 11.3375 -0.625 11.125 C-0.295 10.465 0.035 9.805 0.375 9.125 C-0.40875 9.16625 -1.1925 9.2075 -2 9.25 C-4.625 9.125 -4.625 9.125 -6.625 7.125 C-6.12608303 2.13583028 -5.31787022 0.18337484 0 0 Z " fill="#64A2A7" transform="translate(1156.625,76.875)"/>
<path d="M0 0 C2.9375 0.75 2.9375 0.75 4.9375 2.75 C5.3125 5.1875 5.3125 5.1875 4.9375 7.75 C3.3125 9.625 3.3125 9.625 0.9375 10.75 C-4.48803191 10.32446809 -4.48803191 10.32446809 -6.0625 8.75 C-6.3125 5.3125 -6.3125 5.3125 -6.0625 1.75 C-3.0625 -0.25 -3.0625 -0.25 0 0 Z " fill="#3B8083" transform="translate(664.0625,79.25)"/>
<path d="M0 0 C0.99 0 1.98 0 3 0 C3.33 1.98 3.66 3.96 4 6 C4.99 6.33 5.98 6.66 7 7 C7 7.66 7 8.32 7 9 C6.071875 9.12375 6.071875 9.12375 5.125 9.25 C2.81562433 9.81258459 2.81562433 9.81258459 1.75 12.0625 C1.5025 12.701875 1.255 13.34125 1 14 C0.67 14 0.34 14 0 14 C-1.33568021 14.32380126 -2.66923011 14.65657551 -4 15 C-5.09845718 10.67940177 -6.17812739 6.38332057 -7 2 C-6.01 2.33 -5.02 2.66 -4 3 C-4 3.99 -4 4.98 -4 6 C-3.34 6 -2.68 6 -2 6 C-1.34 4.02 -0.68 2.04 0 0 Z " fill="#C8EDED" transform="translate(198,72)"/>
<path d="M0 0 C1.670625 0.061875 1.670625 0.061875 3.375 0.125 C3.45614106 1.89507714 3.51425505 3.66622098 3.5625 5.4375 C3.59730469 6.42363281 3.63210937 7.40976563 3.66796875 8.42578125 C3.375 11.125 3.375 11.125 2.03125 12.96875 C-0.23483805 14.550736 -1.9275585 14.34371147 -4.625 14.125 C-4.625 13.465 -4.625 12.805 -4.625 12.125 C-2.975 12.125 -1.325 12.125 0.375 12.125 C0.375 11.135 0.375 10.145 0.375 9.125 C-0.429375 9.145625 -1.23375 9.16625 -2.0625 9.1875 C-4.625 9.125 -4.625 9.125 -5.625 8.125 C-5.8125 5.1875 -5.8125 5.1875 -5.625 2.125 C-3.625 0.125 -3.625 0.125 0 0 Z " fill="#7FBABE" transform="translate(226.625,76.875)"/>
<path d="M0 0 C6.93359375 -0.09765625 6.93359375 -0.09765625 9 0 C10 1 10 1 10.09765625 2.84765625 C10.04882812 5.92382812 10.04882812 5.92382812 10 9 C6.7 9 3.4 9 0 9 C0 6.03 0 3.06 0 0 Z " fill="#FBFBFB" transform="translate(519,352)"/>
<path d="M0 0 C0.99 0 1.98 0 3 0 C3.33 1.98 3.66 3.96 4 6 C5.2065625 5.7215625 5.2065625 5.7215625 6.4375 5.4375 C7.7059375 5.2209375 7.7059375 5.2209375 9 5 C10 6 10 6 10.09765625 8.28515625 C10.08605469 9.20167969 10.07445312 10.11820313 10.0625 11.0625 C10.05347656 11.98160156 10.04445313 12.90070313 10.03515625 13.84765625 C10.02355469 14.55792969 10.01195312 15.26820312 10 16 C9.01 16 8.02 16 7 16 C7 13.36 7 10.72 7 8 C5.68 8 4.36 8 3 8 C3 10.64 3 13.28 3 16 C2.01 16 1.02 16 0 16 C0 10.72 0 5.44 0 0 Z " fill="#33858D" transform="translate(694,74)"/>
<path d="M0 0 C1 1 1 1 1.125 3.3125 C1.01347319 5.71032638 0.67883108 7.70894512 0 10 C-3.375 10.125 -3.375 10.125 -7 10 C-9 8 -9 8 -9.3125 5.0625 C-9 2 -9 2 -7.875 0.0625 C-5.04805609 -1.53943488 -3.05073223 -0.79584319 0 0 Z " fill="#458F96" transform="translate(716,80)"/>
<path d="M0 0 C0.66 0 1.32 0 2 0 C2.33 1.32 2.66 2.64 3 4 C3.33 3.67 3.66 3.34 4 3 C5.99958364 2.95919217 8.00045254 2.95745644 10 3 C10 4.98 10 6.96 10 9 C10.66 9 11.32 9 12 9 C12 7.02 12 5.04 12 3 C12.66 3 13.32 3 14 3 C14 5.64 14 8.28 14 11 C12.02 11 10.04 11 8 11 C7.34 9.02 6.68 7.04 6 5 C6 6.32 6 7.64 6 9 C6 9.66 6 10.32 6 11 C4 11 2 11 0 11 C0 7.37 0 3.74 0 0 Z " fill="#B8C3D0" transform="translate(740,396)"/>
<path d="M0 0 C2.14576637 -0.02685938 4.29162645 -0.04633088 6.4375 -0.0625 C7.63246094 -0.07410156 8.82742188 -0.08570312 10.05859375 -0.09765625 C13 0 13 0 14 1 C14.07179964 2.51928038 14.08392007 4.04167482 14.0625 5.5625 C14.05347656 6.38878906 14.04445313 7.21507813 14.03515625 8.06640625 C14.02355469 8.70449219 14.01195312 9.34257813 14 10 C13.34 10 12.68 10 12 10 C11.814375 8.2984375 11.814375 8.2984375 11.625 6.5625 C11.41875 5.386875 11.2125 4.21125 11 3 C10.34 2.67 9.68 2.34 9 2 C9 4.31 9 6.62 9 9 C8.01 9 7.02 9 6 9 C6 6.69 6 4.38 6 2 C5.01 2 4.02 2 3 2 C3 4.64 3 7.28 3 10 C2.01 10 1.02 10 0 10 C0 6.7 0 3.4 0 0 Z " fill="#4C8E9B" transform="translate(276,77)"/>
<path d="M0 0 C6 0 6 0 8 1 C7.979375 1.886875 7.95875 2.77375 7.9375 3.6875 C7.99286219 6.62169631 8.3305734 9.15493696 9 12 C8.34 12 7.68 12 7 12 C6.67 11.01 6.34 10.02 6 9 C3.98491642 8.26676204 3.98491642 8.26676204 2 8 C2 9.32 2 10.64 2 12 C3.32 12.33 4.64 12.66 6 13 C4.02 13 2.04 13 0 13 C0 8.71 0 4.42 0 0 Z " fill="#347E77" transform="translate(142,73)"/>
<path d="M0 0 C1.32 0 2.64 0 4 0 C4 0.66 4 1.32 4 2 C3.01 2 2.02 2 1 2 C1 2.99 1 3.98 1 5 C1.99 4.67 2.98 4.34 4 4 C4.73323796 1.98491642 4.73323796 1.98491642 5 0 C5.721875 0.185625 6.44375 0.37125 7.1875 0.5625 C10.12826973 1.01995307 12.14103058 0.73516357 15 0 C14.01 0.495 14.01 0.495 13 1 C13 2.98 13 4.96 13 7 C9.64035843 8.11988052 7.41909335 7.71980913 4 7 C3.01 7.495 3.01 7.495 2 8 C1.01 7.34 0.02 6.68 -1 6 C-1.25 3.4375 -1.25 3.4375 -1 1 C-0.67 0.67 -0.34 0.34 0 0 Z " fill="#E6E9EC" transform="translate(534,504)"/>
<path d="M0 0 C0.66 0 1.32 0 2 0 C2 1.65 2 3.3 2 5 C2.78375 4.79375 3.5675 4.5875 4.375 4.375 C5.674375 4.189375 5.674375 4.189375 7 4 C9 6 9 6 9.25 8.5 C9 11 9 11 7 13 C3.375 13.125 3.375 13.125 0 13 C0 8.71 0 4.42 0 0 Z " fill="#448B9D" transform="translate(1237,73)"/>
<path d="M0 0 C1.32 0 2.64 0 4 0 C3.67 1.32 3.34 2.64 3 4 C2.34 3.67 1.68 3.34 1 3 C0.67 4.98 0.34 6.96 0 9 C1.65 9 3.3 9 5 9 C5.33 8.34 5.66 7.68 6 7 C9 12.75 9 12.75 9 15 C8.01 15 7.02 15 6 15 C5.67 14.01 5.34 13.02 5 12 C2.03 11.505 2.03 11.505 -1 11 C-1 12.32 -1 13.64 -1 15 C-2.32 15 -3.64 15 -5 15 C-3.78623966 9.67812773 -2.27376292 4.96093728 0 0 Z " fill="#308494" transform="translate(744,75)"/>
<path d="M0 0 C1.2065625 0.0309375 1.2065625 0.0309375 2.4375 0.0625 C4.86607143 7.49107143 4.86607143 7.49107143 3.4375 11.0625 C1.1275 11.0625 -1.1825 11.0625 -3.5625 11.0625 C-3.58938151 9.41675434 -3.60884123 7.77088587 -3.625 6.125 C-3.63660156 5.20847656 -3.64820313 4.29195313 -3.66015625 3.34765625 C-3.52086326 0.08820018 -3.27895972 0.07997463 0 0 Z " fill="#B2BFC8" transform="translate(725.5625,395.9375)"/>
<path d="M0 0 C0.99 0 1.98 0 3 0 C3 1.65 3 3.3 3 5 C4.98 4.67 6.96 4.34 9 4 C9 7.11257569 8.82638376 9.10765685 8 12 C5.36 12 2.72 12 0 12 C0 8.04 0 4.08 0 0 Z " fill="#CAC8D1" transform="translate(555,204)"/>
<path d="M0 0 C0.99 0.99 1.98 1.98 3 3 C5.62570704 3.25069913 5.62570704 3.25069913 8 3 C8 4.65 8 6.3 8 8 C8.66 8 9.32 8 10 8 C10 6.35 10 4.7 10 3 C10.66 3 11.32 3 12 3 C12 5.31 12 7.62 12 10 C8.04 10 4.08 10 0 10 C0 6.7 0 3.4 0 0 Z " fill="#E4E6E8" transform="translate(583,155)"/>
<path d="M0 0 C0.99 0 1.98 0 3 0 C3 2.31 3 4.62 3 7 C3.99 7 4.98 7 6 7 C6 4.69 6 2.38 6 0 C7.32 0 8.64 0 10 0 C10 3.3 10 6.6 10 10 C3.9453125 10.1953125 3.9453125 10.1953125 2 10 C0 8 0 8 -0.1953125 6.0546875 C-0.13020833 4.03645833 -0.06510417 2.01822917 0 0 Z " fill="#81B3B0" transform="translate(1104,77)"/>
<path d="M0 0 C12.87 0.495 12.87 0.495 26 1 C25.67 1.66 25.34 2.32 25 3 C22.525 2.505 22.525 2.505 20 2 C20 7.28 20 12.56 20 18 C19.67 18 19.34 18 19 18 C18.67 15.69 18.34 13.38 18 11 C17.67 11 17.34 11 17 11 C16.67 8.69 16.34 6.38 16 4 C13.00519083 3.1276588 10.36424089 2.89170234 7.25 2.9375 C6.05117188 2.95103516 6.05117188 2.95103516 4.828125 2.96484375 C3.92320312 2.98224609 3.92320312 2.98224609 3 3 C2.67 4.32 2.34 5.64 2 7 C1.34 4.69 0.68 2.38 0 0 Z " fill="#DFF8FA" transform="translate(749,77)"/>
<path d="M0 0 C0.66 0.66 1.32 1.32 2 2 C1.9765625 4.6015625 1.9765625 4.6015625 1.625 7.625 C1.45871094 9.12933594 1.45871094 9.12933594 1.2890625 10.6640625 C1.14597656 11.82035156 1.14597656 11.82035156 1 13 C0.67 13 0.34 13 0 13 C0 9.7 0 6.4 0 3 C-4.34184202 3.18464366 -4.34184202 3.18464366 -8 5 C-8.04080783 6.99958364 -8.04254356 9.00045254 -8 11 C-6.35 11.33 -4.7 11.66 -3 12 C-3 12.99 -3 13.98 -3 15 C-4.65 15 -6.3 15 -8 15 C-8.33 15.66 -8.66 16.32 -9 17 C-9 15.68 -9 14.36 -9 13 C-10.32 12.67 -11.64 12.34 -13 12 C-12.34 12 -11.68 12 -11 12 C-11 8.7 -11 5.4 -11 2 C-8.72135417 1.77213542 -6.44270833 1.54427083 -4.1640625 1.31640625 C-1.95727195 1.10909886 -1.95727195 1.10909886 0 0 Z " fill="#DAF4F6" transform="translate(230,74)"/>
<path d="M0 0 C1.47906892 -0.02689216 2.95827483 -0.04634621 4.4375 -0.0625 C5.26121094 -0.07410156 6.08492187 -0.08570313 6.93359375 -0.09765625 C9 0 9 0 10 1 C10.04063832 2.66617115 10.042721 4.33388095 10 6 C10.66 6 11.32 6 12 6 C12 4.02 12 2.04 12 0 C12.66 0 13.32 0 14 0 C14 2.31 14 4.62 14 7 C11.03 7 8.06 7 5 7 C5 5.35 5 3.7 5 2 C4.01 2.495 4.01 2.495 3 3 C2.34786708 5.02463255 2.34786708 5.02463255 2 7 C-0.31 7 -2.62 7 -5 7 C-5 6.67 -5 6.34 -5 6 C-3.35 6 -1.7 6 0 6 C0 4.02 0 2.04 0 0 Z " fill="#E3E7EA" transform="translate(547,235)"/>
<path d="M0 0 C0.99 0.33 1.98 0.66 3 1 C3 1.99 3 2.98 3 4 C4.32 4 5.64 4 7 4 C8.125 9.75 8.125 9.75 7 12 C4.69 12 2.38 12 0 12 C0 8.04 0 4.08 0 0 Z " fill="#B0B7C5" transform="translate(693,395)"/>
<path d="M0 0 C0 1.32 0 2.64 0 4 C2.64 4 5.28 4 8 4 C8 4.66 8 5.32 8 6 C4.7 6 1.4 6 -2 6 C-2.66 4.68 -3.32 3.36 -4 2 C-4.33 3.32 -4.66 4.64 -5 6 C-11.15234375 6.09765625 -11.15234375 6.09765625 -13 6 C-14 5 -14 5 -14.0625 2.4375 C-14.041875 1.633125 -14.02125 0.82875 -14 0 C-13.34 0 -12.68 0 -12 0 C-12 1.65 -12 3.3 -12 5 C-11.34 5 -10.68 5 -10 5 C-10 3.35 -10 1.7 -10 0 C-6.33694766 -0.74926071 -3.57644848 -1.2380014 0 0 Z " fill="#E4E5E9" transform="translate(565,313)"/>
<path d="M0 0 C1.81242052 -0.02687279 3.62495233 -0.04633715 5.4375 -0.0625 C6.44683594 -0.07410156 7.45617187 -0.08570313 8.49609375 -0.09765625 C11 0 11 0 12 1 C12.04092937 3.33297433 12.04241723 5.66705225 12 8 C11.01 8 10.02 8 9 8 C9 6.02 9 4.04 9 2 C8.34 2 7.68 2 7 2 C7 3.65 7 5.3 7 7 C6.34 7 5.68 7 5 7 C5 5.35 5 3.7 5 2 C4.34 2 3.68 2 3 2 C3 3.98 3 5.96 3 8 C2.01 8 1.02 8 0 8 C0 5.36 0 2.72 0 0 Z " fill="#BAC6D0" transform="translate(680,399)"/>
<path d="M0 0 C0.99 0 1.98 0 3 0 C3 2.31 3 4.62 3 7 C3.66 7 4.32 7 5 7 C5 4.69 5 2.38 5 0 C5.99 0 6.98 0 8 0 C8 3.3 8 6.6 8 10 C5.36 10 2.72 10 0 10 C0 6.7 0 3.4 0 0 Z " fill="#629E9C" transform="translate(175,77)"/>
<path d="M0 0 C0.99 0 1.98 0 3 0 C3.33 1.98 3.66 3.96 4 6 C4.33 5.34 4.66 4.68 5 4 C5.99 4 6.98 4 8 4 C7.814375 4.928125 7.62875 5.85625 7.4375 6.8125 C6.75876119 10.01343771 6.75876119 10.01343771 8 13 C7.01 13 6.02 13 5 13 C4.67 12.34 4.34 11.68 4 11 C3.67 11.66 3.34 12.32 3 13 C2.01 13 1.02 13 0 13 C0 8.71 0 4.42 0 0 Z " fill="#4E928F" transform="translate(1094,73)"/>
<path d="M0 0 C1.2065625 0.0309375 1.2065625 0.0309375 2.4375 0.0625 C2.7675 1.0525 3.0975 2.0425 3.4375 3.0625 C2.1175 3.3925 0.7975 3.7225 -0.5625 4.0625 C0.7575 4.7225 2.0775 5.3825 3.4375 6.0625 C3.1075 7.7125 2.7775 9.3625 2.4375 11.0625 C0.1275 11.0625 -2.1825 11.0625 -4.5625 11.0625 C-4.5625 10.0725 -4.5625 9.0825 -4.5625 8.0625 C-3.9025 7.7325 -3.2425 7.4025 -2.5625 7.0625 C-3.2225 6.4025 -3.8825 5.7425 -4.5625 5.0625 C-3.80953264 0.09291543 -3.80953264 0.09291543 0 0 Z " fill="#4990A5" transform="translate(786.5625,78.9375)"/>
<path d="M0 0 C2.97 0.495 2.97 0.495 6 1 C5.01 1.33 4.02 1.66 3 2 C3.144375 3.27875 3.28875 4.5575 3.4375 5.875 C3.55931641 6.95394531 3.55931641 6.95394531 3.68359375 8.0546875 C3.91292961 10.07404316 3.91292961 10.07404316 5 12 C0.71 12 -3.58 12 -8 12 C-7.34 11.34 -6.68 10.68 -6 10 C-6 8.68 -6 7.36 -6 6 C-4.35 6.33 -2.7 6.66 -1 7 C-1 7.99 -1 8.98 -1 10 C-0.34 10 0.32 10 1 10 C0.649375 9.0925 0.29875 8.185 -0.0625 7.25 C-0.96468779 4.12241564 -1.13381507 2.94791919 0 0 Z " fill="#D1F4F5" transform="translate(150,75)"/>
<path d="M0 0 C1.32 0 2.64 0 4 0 C4 2 4 2 2.5 3.625 C2.005 4.07875 1.51 4.5325 1 5 C1.99 5 2.98 5 4 5 C4 5.99 4 6.98 4 8 C3.01 8 2.02 8 1 8 C1 10.64 1 13.28 1 16 C0.01 16 -0.98 16 -2 16 C-3.43084472 6.15647792 -3.43084472 6.15647792 -1.8125 1.8125 C-1.214375 1.214375 -0.61625 0.61625 0 0 Z " fill="#308691" transform="translate(728,74)"/>
<path d="M0 0 C1.65 0 3.3 0 5 0 C5.66 0.66 6.32 1.32 7 2 C6.42307692 8.57692308 6.42307692 8.57692308 5 10 C3.35 10 1.7 10 0 10 C0 6.7 0 3.4 0 0 Z " fill="#666968" transform="translate(575,353)"/>
<path d="M0 0 C1.65 0 3.3 0 5 0 C7.42857143 6.28571429 7.42857143 6.28571429 6 10 C4.02 10 2.04 10 0 10 C0 6.7 0 3.4 0 0 Z " fill="#7F848C" transform="translate(549,474)"/>
<path d="M0 0 C1.9609375 0.015625 1.9609375 0.015625 4.375 0.25 C5.16648437 0.31703125 5.95796875 0.3840625 6.7734375 0.453125 C9.35133561 1.08629296 10.32367504 1.98841004 12 4 C10.68 4 9.36 4 8 4 C7.67 4.66 7.34 5.32 7 6 C6.34 5.67 5.68 5.34 5 5 C5 5.66 5 6.32 5 7 C3.68 7 2.36 7 1 7 C1 7.99 1 8.98 1 10 C0.34 10 -0.32 10 -1 10 C-1.02689216 8.52093108 -1.04634621 7.04172517 -1.0625 5.5625 C-1.07410156 4.73878906 -1.08570313 3.91507813 -1.09765625 3.06640625 C-1 1 -1 1 0 0 Z " fill="#EAEDEF" transform="translate(534,235)"/>
<path d="M0 0 C1.65 0 3.3 0 5 0 C5.95024979 3.69541586 5.95024979 6.30458414 5 10 C3.35 10 1.7 10 0 10 C0 6.7 0 3.4 0 0 Z " fill="#7D8087" transform="translate(563,128)"/>
<path d="M0 0 C6.15234375 -0.09765625 6.15234375 -0.09765625 8 0 C9 1 9 1 9.09765625 2.84765625 C9.04882812 5.92382812 9.04882812 5.92382812 9 9 C8.01 9 7.02 9 6 9 C6 6.69 6 4.38 6 2 C5.01 2 4.02 2 3 2 C3 4.31 3 6.62 3 9 C2.01 9 1.02 9 0 9 C0 6.03 0 3.06 0 0 Z " fill="#539397" transform="translate(210,77)"/>
<path d="M0 0 C2.64 0 5.28 0 8 0 C10 2 10 2 10.125 4.625 C10.08375 5.40875 10.0425 6.1925 10 7 C6.86650268 8.04449911 6.01031744 7.93423645 3 7 C3 5.68 3 4.36 3 3 C4.32 3 5.64 3 7 3 C7 2.34 7 1.68 7 1 C5.02 1 3.04 1 1 1 C1 5.95 1 10.9 1 16 C0.67 16 0.34 16 0 16 C0 10.72 0 5.44 0 0 Z " fill="#6BAEAC" transform="translate(631,74)"/>
<path d="M0 0 C2.64 0 5.28 0 8 0 C8 0.99 8 1.98 8 3 C7.34 3 6.68 3 6 3 C6 5.64 6 8.28 6 11 C4.68 11 3.36 11 2 11 C2 8.36 2 5.72 2 3 C1.34 3 0.68 3 0 3 C0 2.01 0 1.02 0 0 Z " fill="#A3AFB6" transform="translate(665,396)"/>
<path d="M0 0 C0.66 0 1.32 0 2 0 C2 1.65 2 3.3 2 5 C2.78375 4.79375 3.5675 4.5875 4.375 4.375 C5.674375 4.189375 5.674375 4.189375 7 4 C9 6 9 6 9.25 8.5 C9 11 9 11 7 13 C6.01 12.67 5.02 12.34 4 12 C4.66 12 5.32 12 6 12 C6 10.02 6 8.04 6 6 C5.01 6.33 4.02 6.66 3 7 C2.67 8.98 2.34 10.96 2 13 C1.34 13 0.68 13 0 13 C0 8.71 0 4.42 0 0 Z " fill="#41899C" transform="translate(317,73)"/>
<path d="M0 0 C0.33 0 0.66 0 1 0 C1 5.28 1 10.56 1 16 C-2.21451269 17.60725635 -5.43612536 17.05748185 -9 17 C-9 16.67 -9 16.34 -9 16 C-5.535 15.505 -5.535 15.505 -2 15 C-2.26676204 13.01508358 -2.26676204 13.01508358 -3 11 C-3.99 10.67 -4.98 10.34 -6 10 C-6 9.34 -6 8.68 -6 8 C-4.68 8 -3.36 8 -2 8 C-2.33 7.01 -2.66 6.02 -3 5 C-2.34 5 -1.68 5 -1 5 C-0.67 3.35 -0.34 1.7 0 0 Z " fill="#BCE6EA" transform="translate(693,74)"/>
<path d="M0 0 C0.66 0 1.32 0 2 0 C2 0.99 2 1.98 2 3 C3.65 3 5.3 3 7 3 C7 5.64 7 8.28 7 11 C6.401875 10.814375 5.80375 10.62875 5.1875 10.4375 C2.83591238 9.77906313 2.83591238 9.77906313 0 11 C0 7.37 0 3.74 0 0 Z " fill="#949B9E" transform="translate(563,353)"/>
<path d="M0 0 C4 2 4 2 6 5 C6.33 3.35 6.66 1.7 7 0 C7.66 0 8.32 0 9 0 C9 3.3 9 6.6 9 10 C5 8 5 8 3 5 C2.67 6.65 2.34 8.3 2 10 C1.34 10 0.68 10 0 10 C0 6.7 0 3.4 0 0 Z " fill="#6D6C74" transform="translate(519,128)"/>
<path d="M0 0 C0.66 0.33 1.32 0.66 2 1 C2 2.32 2 3.64 2 5 C0.02 5 -1.96 5 -4 5 C-4 5.66 -4 6.32 -4 7 C-2.68 7.33 -1.36 7.66 0 8 C-2.375 8.125 -2.375 8.125 -5 8 C-5.66 7.34 -6.32 6.68 -7 6 C-6.75 2.9375 -6.75 2.9375 -6 0 C-3.4832097 -1.25839515 -2.62168527 -0.81927665 0 0 Z " fill="#3E8790" transform="translate(256,78)"/>
<path d="M0 0 C2.31 0 4.62 0 7 0 C9 2 9 2 9 6 C6 7 6 7 3 6 C3 4.68 3 3.36 3 2 C2.34 1.67 1.68 1.34 1 1 C1 4.96 1 8.92 1 13 C3.31 13 5.62 13 8 13 C8 13.33 8 13.66 8 14 C5.36 14 2.72 14 0 14 C0 9.38 0 4.76 0 0 Z " fill="#8EC0C4" transform="translate(238,73)"/>
<path d="M0 0 C4.70588235 0.70588235 4.70588235 0.70588235 6 2 C6.04092937 4.33297433 6.04241723 6.66705225 6 9 C3.69 9 1.38 9 -1 9 C-1.33 7.68 -1.66 6.36 -2 5 C-0.35 4.67 1.3 4.34 3 4 C3 3.34 3 2.68 3 2 C1.68 1.67 0.36 1.34 -1 1 C-0.67 0.67 -0.34 0.34 0 0 Z " fill="#4C8E97" transform="translate(1193,77)"/>
<path d="M0 0 C4.70588235 0.70588235 4.70588235 0.70588235 6 2 C6.04092937 4.33297433 6.04241723 6.66705225 6 9 C3.69 9 1.38 9 -1 9 C-1.33 7.68 -1.66 6.36 -2 5 C-0.35 4.67 1.3 4.34 3 4 C3 3.34 3 2.68 3 2 C1.68 1.67 0.36 1.34 -1 1 C-0.67 0.67 -0.34 0.34 0 0 Z " fill="#4C8EA1" transform="translate(348,77)"/>
<path d="M0 0 C0.66 0 1.32 0 2 0 C2 0.99 2 1.98 2 3 C3.65 3.33 5.3 3.66 7 4 C7.042721 5.66611905 7.04063832 7.33382885 7 9 C6 10 6 10 2.9375 10.0625 C1.968125 10.041875 0.99875 10.02125 0 10 C0 6.7 0 3.4 0 0 Z " fill="#E8EAED" transform="translate(556,501)"/>
<path d="M0 0 C-0.350625 0.556875 -0.70125 1.11375 -1.0625 1.6875 C-2.21845993 4.53886783 -1.80967438 6.08517222 -1 9 C0.65 9.33 2.3 9.66 4 10 C3.67 10.99 3.34 11.98 3 13 C1.35 13 -0.3 13 -2 13 C-2.33 13.66 -2.66 14.32 -3 15 C-3 13.68 -3 12.36 -3 11 C-4.32 10.67 -5.64 10.34 -7 10 C-6.34 10 -5.68 10 -5 10 C-5.061875 8.72125 -5.12375 7.4425 -5.1875 6.125 C-5.29296875 3.9453125 -5.29296875 3.9453125 -5 2 C-2 0 -2 0 0 0 Z " fill="#C5E7E9" transform="translate(1153,76)"/>
<path d="M0 0 C3.125 0.375 3.125 0.375 6 1 C6 2.65 6 4.3 6 6 C4.35 6 2.7 6 1 6 C1 6.66 1 7.32 1 8 C2.32 8.33 3.64 8.66 5 9 C2.625 9.125 2.625 9.125 0 9 C-2 7 -2 7 -2.25 4.5 C-2 2 -2 2 0 0 Z " fill="#70ADB3" transform="translate(1178,77)"/>
<path d="M0 0 C1.32 0 2.64 0 4 0 C4 0.66 4 1.32 4 2 C3.01 2 2.02 2 1 2 C1 7.28 1 12.56 1 18 C-1.31 18 -3.62 18 -6 18 C-5.505 17.608125 -5.01 17.21625 -4.5 16.8125 C-2.76448703 15.05967762 -2.76448703 15.05967762 -2.75 12.4375 C-2.85539031 9.99453406 -2.85539031 9.99453406 -4 8 C-3.01 8 -2.02 8 -1 8 C-0.67 5.36 -0.34 2.72 0 0 Z " fill="#C4E7E9" transform="translate(671,72)"/>
<path d="M0 0 C1.99954746 -0.04254356 4.00041636 -0.04080783 6 0 C7 1 7 1 7.0625 4.5625 C7.041875 5.696875 7.02125 6.83125 7 8 C4.69 8.33 2.38 8.66 0 9 C-0.38218767 7.34385343 -0.71395102 5.67542976 -1 4 C0 3 0 3 2.5625 2.9375 C3.7690625 2.9684375 3.7690625 2.9684375 5 3 C5 2.34 5 1.68 5 1 C3.35 1 1.7 1 0 1 C0 0.67 0 0.34 0 0 Z " fill="#70AEB3" transform="translate(1130,78)"/>
<path d="M0 0 C0.33 0 0.66 0 1 0 C1.33 2.31 1.66 4.62 2 7 C4.31 7 6.62 7 9 7 C8.625 9.4375 8.625 9.4375 8 12 C6 13 6 13 0 13 C0 8.71 0 4.42 0 0 Z " fill="#72B0AA" transform="translate(1071,74)"/>
<path d="M0 0 C0.66 0 1.32 0 2 0 C2 1.32 2 2.64 2 4 C3.65 4.33 5.3 4.66 7 5 C7 7.31 7 9.62 7 12 C6.01 12 5.02 12 4 12 C4 10.02 4 8.04 4 6 C3.34 6 2.68 6 2 6 C2 7.98 2 9.96 2 12 C1.34 12 0.68 12 0 12 C0 8.04 0 4.08 0 0 Z " fill="#C0C5D3" transform="translate(710,395)"/>
<path d="M0 0 C0.763125 0.20625 1.52625 0.4125 2.3125 0.625 C2.3125 0.955 2.3125 1.285 2.3125 1.625 C0.6625 1.625 -0.9875 1.625 -2.6875 1.625 C-2.6875 2.285 -2.6875 2.945 -2.6875 3.625 C-1.3675 3.625 -0.0475 3.625 1.3125 3.625 C1.3125 4.285 1.3125 4.945 1.3125 5.625 C-0.6675 5.955 -2.6475 6.285 -4.6875 6.625 C-4.6875 7.285 -4.6875 7.945 -4.6875 8.625 C-6.3375 8.625 -7.9875 8.625 -9.6875 8.625 C-9.3575 6.975 -9.0275 5.325 -8.6875 3.625 C-7.6975 3.625 -6.7075 3.625 -5.6875 3.625 C-5.6875 2.965 -5.6875 2.305 -5.6875 1.625 C-2.6875 -0.375 -2.6875 -0.375 0 0 Z " fill="#CBF1F6" transform="translate(1269.6875,75.375)"/>
<path d="M0 0 C0.99 0 1.98 0 3 0 C3 5.61 3 11.22 3 17 C2.01 17 1.02 17 0 17 C0 11.39 0 5.78 0 0 Z " fill="#408792" transform="translate(719,73)"/>
<path d="M0 0 C0.66 0 1.32 0 2 0 C3.70366626 6.08251096 4.13253652 10.77104914 3 17 C2.01 17 1.02 17 0 17 C0 11.39 0 5.78 0 0 Z " fill="#398A9F" transform="translate(769,79)"/>
<path d="M0 0 C2.31 0.33 4.62 0.66 7 1 C7 3.64 7 6.28 7 9 C6.01 9 5.02 9 4 9 C4 8.01 4 7.02 4 6 C3.01 6 2.02 6 1 6 C1 6.66 1 7.32 1 8 C1.66 8.33 2.32 8.66 3 9 C1.68 9 0.36 9 -1 9 C-0.67 7.35 -0.34 5.7 0 4 C1.32 4 2.64 4 4 4 C4 3.34 4 2.68 4 2 C2.68 2 1.36 2 0 2 C0 1.34 0 0.68 0 0 Z " fill="#458EA1" transform="translate(1267,77)"/>
<path d="M0 0 C0 0.66 0 1.32 0 2 C-1.32 2 -2.64 2 -4 2 C-4 2.66 -4 3.32 -4 4 C-2.68 4.33 -1.36 4.66 0 5 C0 6.32 0 7.64 0 9 C-2.375 9.625 -2.375 9.625 -5 10 C-5.66 9.34 -6.32 8.68 -7 8 C-5.35 8 -3.7 8 -2 8 C-2 7.34 -2 6.68 -2 6 C-3.65 5.67 -5.3 5.34 -7 5 C-7 3.35 -7 1.7 -7 0 C-4.3333581 -1.33332095 -2.83319697 -0.67102033 0 0 Z " fill="#358488" transform="translate(691,80)"/>
<path d="M0 0 C3.3 0 6.6 0 10 0 C9.01 0.33 8.02 0.66 7 1 C7 4.96 7 8.92 7 13 C6.01 13 5.02 13 4 13 C4 9.37 4 5.74 4 2 C2.68 2 1.36 2 0 2 C0 1.34 0 0.68 0 0 Z " fill="#4F969E" transform="translate(1166,74)"/>
<path d="M0 0 C1.32 0 2.64 0 4 0 C4 1.32 4 2.64 4 4 C4.99 3.34 5.98 2.68 7 2 C6.34 2 5.68 2 5 2 C5 1.34 5 0.68 5 0 C6.65 0 8.3 0 10 0 C10 2.31 10 4.62 10 7 C7.36 7 4.72 7 2 7 C1.34 4.69 0.68 2.38 0 0 Z " fill="#E3E6E9" transform="translate(553,158)"/>
<path d="M0 0 C0.33 0 0.66 0 1 0 C1 5.28 1 10.56 1 16 C-0.98 16.99 -0.98 16.99 -3 18 C-5.25 17.125 -5.25 17.125 -7 16 C-5.35 16 -3.7 16 -2 16 C-2 15.01 -2 14.02 -2 13 C-3.98 13 -5.96 13 -8 13 C-8 12.67 -8 12.34 -8 12 C-5.69 12 -3.38 12 -1 12 C-1.57452746 8.06924356 -1.57452746 8.06924356 -4 5 C-2.68 5 -1.36 5 0 5 C0 3.35 0 1.7 0 0 Z " fill="#D3F8FB" transform="translate(718,74)"/>
<path d="M0 0 C0.66 0 1.32 0 2 0 C2.05395478 1.62463842 2.09277195 3.24978541 2.125 4.875 C2.14820313 5.77992187 2.17140625 6.68484375 2.1953125 7.6171875 C2 10 2 10 0 12 C-3.125 12.125 -3.125 12.125 -6 12 C-6 11.34 -6 10.68 -6 10 C-5.195625 9.87625 -4.39125 9.7525 -3.5625 9.625 C-2.716875 9.41875 -1.87125 9.2125 -1 9 C-0.67 8.34 -0.34 7.68 0 7 C-1.65 7 -3.3 7 -5 7 C-5.33 5.35 -5.66 3.7 -6 2 C-5.34 2.66 -4.68 3.32 -4 4 C-1.93125966 4.6425235 -1.93125966 4.6425235 0 5 C0 3.35 0 1.7 0 0 Z " fill="#488B90" transform="translate(1157,79)"/>
<path d="M0 0 C0.66 0 1.32 0 2 0 C2 1.65 2 3.3 2 5 C3.98 5 5.96 5 8 5 C8 7.64 8 10.28 8 13 C7.34 13 6.68 13 6 13 C5.67 11.02 5.34 9.04 5 7 C4.34 7 3.68 7 3 7 C2.67 8.98 2.34 10.96 2 13 C1.34 13 0.68 13 0 13 C0 8.71 0 4.42 0 0 Z " fill="#2C7582" transform="translate(1202,73)"/>
<path d="M0 0 C0.66 0 1.32 0 2 0 C2.33 2.31 2.66 4.62 3 7 C3.66 6.01 4.32 5.02 5 4 C5.66 4 6.32 4 7 4 C6.814375 4.928125 6.62875 5.85625 6.4375 6.8125 C5.75876119 10.01343771 5.75876119 10.01343771 7 13 C6.01 12.67 5.02 12.34 4 12 C4 11.34 4 10.68 4 10 C3.34 10 2.68 10 2 10 C2 10.99 2 11.98 2 13 C1.34 13 0.68 13 0 13 C0 8.71 0 4.42 0 0 Z " fill="#3E8280" transform="translate(165,73)"/>
<path d="M0 0 C2.64 0 5.28 0 8 0 C8 2.64 8 5.28 8 8 C7.01 8 6.02 8 5 8 C5 6.02 5 4.04 5 2 C4.01 2.495 4.01 2.495 3 3 C2.34444881 5.52733235 2.34444881 5.52733235 2 8 C1.34 8 0.68 8 0 8 C0 5.36 0 2.72 0 0 Z " fill="#9B99A8" transform="translate(535,476)"/>
<path d="M0 0 C1.98 0.66 3.96 1.32 6 2 C6 2.66 6 3.32 6 4 C5.01 4 4.02 4 3 4 C3 4.99 3 5.98 3 7 C3.99 7 4.98 7 6 7 C6 7.66 6 8.32 6 9 C0.04296875 10.7578125 0.04296875 10.7578125 -2 11 C-2.99 10.34 -3.98 9.68 -5 9 C-3.35 9 -1.7 9 0 9 C-0.185625 7.88625 -0.37125 6.7725 -0.5625 5.625 C-1 2 -1 2 0 0 Z " fill="#E6E7E9" transform="translate(600,354)"/>
<path d="M0 0 C0.66 0 1.32 0 2 0 C2 0.99 2 1.98 2 3 C3.32 3 4.64 3 6 3 C6.04254356 4.99954746 6.04080783 7.00041636 6 9 C5.67 9.33 5.34 9.66 5 10 C3.35 10 1.7 10 0 10 C0 6.7 0 3.4 0 0 Z " fill="#E6EAEB" transform="translate(568,155)"/>
<path d="M0 0 C0.99 0 1.98 0 3 0 C3.33 1.32 3.66 2.64 4 4 C4.66 4 5.32 4 6 4 C6.33 2.68 6.66 1.36 7 0 C7.66 0 8.32 0 9 0 C8.01 3.96 7.02 7.92 6 12 C5.34 12 4.68 12 4 12 C2.66666667 8 1.33333333 4 0 0 Z " fill="#448A8D" transform="translate(1120,74)"/>
<path d="M0 0 C0.66 0 1.32 0 2 0 C2 3.3 2 6.6 2 10 C0.35 10 -1.3 10 -3 10 C-4 9 -4 9 -4.0625 6.4375 C-4.041875 5.633125 -4.02125 4.82875 -4 4 C-2.68 3.67 -1.36 3.34 0 3 C0 2.01 0 1.02 0 0 Z " fill="#5D605F" transform="translate(553,353)"/>
<path d="M0 0 C0.99 0.495 0.99 0.495 2 1 C2 1.66 2 2.32 2 3 C3.2375 3.12375 4.475 3.2475 5.75 3.375 C8.8762197 3.75746305 11.28879237 4.30549523 14 6 C14 6.66 14 7.32 14 8 C13.21625 8.268125 12.4325 8.53625 11.625 8.8125 C8.71885077 9.84814432 8.71885077 9.84814432 7 13 C6.34 12.67 5.68 12.34 5 12 C5.33 11.67 5.66 11.34 6 11 C6.04063832 9.33382885 6.042721 7.66611905 6 6 C3.92446352 5.4465236 2.15634036 5 0 5 C0 3.35 0 1.7 0 0 Z " fill="#B1E7F1" transform="translate(319,73)"/>
<path d="M0 0 C1.66611905 -0.042721 3.33382885 -0.04063832 5 0 C6 1 6 1 6.0625 4.5625 C6.041875 5.696875 6.02125 6.83125 6 8 C4.02 8 2.04 8 0 8 C-0.33 6.68 -0.66 5.36 -1 4 C-0.34 3.67 0.32 3.34 1 3 C0.67 2.01 0.34 1.02 0 0 Z " fill="#BDC8D4" transform="translate(673,399)"/>
<path d="M0 0 C2.64 0 5.28 0 8 0 C8 1.65 8 3.3 8 5 C6.25 6.125 6.25 6.125 4 7 C1.75 6.125 1.75 6.125 0 5 C0 3.35 0 1.7 0 0 Z " fill="#68ACAD" transform="translate(634,83)"/>
<path d="M0 0 C0.99 0.33 1.98 0.66 3 1 C3 1.99 3 2.98 3 4 C3.66 4 4.32 4 5 4 C5.33 2.68 5.66 1.36 6 0 C6.99 0.33 7.98 0.66 9 1 C8.525625 1.886875 8.05125 2.77375 7.5625 3.6875 C6.20262851 6.57042756 5.45939614 8.87610623 5 12 C4.34 12 3.68 12 3 12 C2.49440092 10.56445975 1.9957251 9.1264798 1.5 7.6875 C1.2215625 6.88699219 0.943125 6.08648437 0.65625 5.26171875 C0 3 0 3 0 0 Z " fill="#3E8584" transform="translate(191,74)"/>
<path d="M0 0 C1.98 0 3.96 0 6 0 C5.1028125 0.2784375 5.1028125 0.2784375 4.1875 0.5625 C0.90018201 2.72273753 0.35145313 5.35107655 -1 9 C-1.66 9 -2.32 9 -3 9 C-3 11.64 -3 14.28 -3 17 C-3.33 17 -3.66 17 -4 17 C-4 11.72 -4 6.44 -4 1 C-2.68 1.33 -1.36 1.66 0 2 C0 1.34 0 0.68 0 0 Z " fill="#B8E2E6" transform="translate(726,73)"/>
<path d="M0 0 C1.65 0 3.3 0 5 0 C4.67 1.65 4.34 3.3 4 5 C4.99 5.33 5.98 5.66 7 6 C7.99 6.33 8.98 6.66 10 7 C10 7.66 10 8.32 10 9 C8.68 9.33 7.36 9.66 6 10 C6 11.32 6 12.64 6 14 C5.01 14 4.02 14 3 14 C3 9.71 3 5.42 3 1 C2.01 0.67 1.02 0.34 0 0 Z " fill="#CEF4F7" transform="translate(1186,72)"/>
<path d="M0 0 C0.99 0 1.98 0 3 0 C3 2.31 3 4.62 3 7 C3.99 7 4.98 7 6 7 C6 4.69 6 2.38 6 0 C6.99 0.33 7.98 0.66 9 1 C9 2.98 9 4.96 9 7 C6.04335481 8.4783226 3.25770263 8.06032783 0 8 C0 5.36 0 2.72 0 0 Z " fill="#C3ECF2" transform="translate(279,79)"/>
<path d="M0 0 C0.66 0 1.32 0 2 0 C2 2.31 2 4.62 2 7 C3.32 7 4.64 7 6 7 C6 4.69 6 2.38 6 0 C6.66 0 7.32 0 8 0 C8 2.97 8 5.94 8 9 C5.66705225 9.04241723 3.33297433 9.04092937 1 9 C0 8 0 8 -0.09765625 6.15234375 C-0.06510417 4.1015625 -0.03255208 2.05078125 0 0 Z " fill="#42858E" transform="translate(265,77)"/>
<path d="M0 0 C0.66 0.33 1.32 0.66 2 1 C1.071875 2.051875 1.071875 2.051875 0.125 3.125 C-2.04654267 6.06296949 -2.9033756 8.55346618 -4 12 C-4.99 12.495 -4.99 12.495 -6 13 C-6.40729228 15.32156597 -6.74438677 17.6568787 -7 20 C-7.33 20 -7.66 20 -8 20 C-8.45825651 13.58440889 -7.54063163 9.40664019 -4 4 C-1.75 1.5 -1.75 1.5 0 0 Z " fill="#68727E" transform="translate(658,385)"/>
<path d="M0 0 C0.66 0 1.32 0 2 0 C2 1.32 2 2.64 2 4 C3.32 4 4.64 4 6 4 C7.35439668 6.70879335 7.06501451 9.00933268 7 12 C6.34 12 5.68 12 5 12 C5 10.02 5 8.04 5 6 C4.01 6 3.02 6 2 6 C2 7.65 2 9.3 2 11 C1.34 11 0.68 11 0 11 C0 7.37 0 3.74 0 0 Z " fill="#737780" transform="translate(533,281)"/>
<path d="M0 0 C2.33294775 -0.04241723 4.66702567 -0.04092937 7 0 C8 1 8 1 8.09765625 2.84765625 C8.04882812 5.92382812 8.04882812 5.92382812 8 9 C7.34 9 6.68 9 6 9 C6 6.69 6 4.38 6 2 C5.01 2.33 4.02 2.66 3 3 C2.67 4.98 2.34 6.96 2 9 C1.34 9 0.68 9 0 9 C0 6.03 0 3.06 0 0 Z " fill="#408789" transform="translate(1140,77)"/>
<path d="M0 0 C0.66 0.33 1.32 0.66 2 1 C2 4.96 2 8.92 2 13 C0.68 12.67 -0.64 12.34 -2 12 C-2.28571429 3.42857143 -2.28571429 3.42857143 0 0 Z " fill="#BDBDBC" transform="translate(564,472)"/>
<path d="M0 0 C2.625 0.375 2.625 0.375 5 1 C5 4.3 5 7.6 5 11 C4.01 11 3.02 11 2 11 C2 8.36 2 5.72 2 3 C0.68 2.67 -0.64 2.34 -2 2 C-1.34 1.34 -0.68 0.68 0 0 Z " fill="#418B94" transform="translate(699,79)"/>
<path d="M0 0 C1.32 0.33 2.64 0.66 4 1 C3.34 1 2.68 1 2 1 C2.27034634 3.43717258 2.27034634 3.43717258 3 6 C3.99 6.66 4.98 7.32 6 8 C4.35 8 2.7 8 1 8 C0.67 8.66 0.34 9.32 0 10 C-1.5625 8.8125 -1.5625 8.8125 -3 7 C-2.6875 4.3125 -2.6875 4.3125 -2 2 C-1.34 2 -0.68 2 0 2 C0 1.34 0 0.68 0 0 Z " fill="#D3F3F5" transform="translate(682,79)"/>
<path d="M0 0 C0.99 0 1.98 0 3 0 C3.02689216 1.47906892 3.04634621 2.95827483 3.0625 4.4375 C3.07410156 5.26121094 3.08570313 6.08492188 3.09765625 6.93359375 C3 9 3 9 2 10 C0.33382885 10.04063832 -1.33388095 10.042721 -3 10 C-2.67 9.34 -2.34 8.68 -2 8 C-1.34 8.33 -0.68 8.66 0 9 C-0.66 8.01 -1.32 7.02 -2 6 C-1.65394389 3.71602968 -1.03295481 2.06590963 0 0 Z " fill="#CFEDEC" transform="translate(172,77)"/>
<path d="M0 0 C2.475 0.495 2.475 0.495 5 1 C5.125 3.875 5.125 3.875 5 7 C4.34 7.66 3.68 8.32 3 9 C2.01 9 1.02 9 0 9 C0 6.03 0 3.06 0 0 Z " fill="#D9F8FB" transform="translate(301,76)"/>
<path d="M0 0 C1.67542976 0.28604898 3.34385343 0.61781233 5 1 C5 3.64 5 6.28 5 9 C4.34 9 3.68 9 3 9 C3 8.01 3 7.02 3 6 C2.01 6 1.02 6 0 6 C0 6.66 0 7.32 0 8 C0.66 8.33 1.32 8.66 2 9 C0.68 9 -0.64 9 -2 9 C-1.67 7.35 -1.34 5.7 -1 4 C0.32 4 1.64 4 3 4 C3 3.34 3 2.68 3 2 C1.68 1.67 0.36 1.34 -1 1 C-0.67 0.67 -0.34 0.34 0 0 Z " fill="#438486" transform="translate(202,77)"/>
<path d="M0 0 C0.94875 0.04125 1.8975 0.0825 2.875 0.125 C2.875 0.785 2.875 1.445 2.875 2.125 C1.225 2.455 -0.425 2.785 -2.125 3.125 C-2.125 4.445 -2.125 5.765 -2.125 7.125 C-0.475 7.455 1.175 7.785 2.875 8.125 C2.875 8.785 2.875 9.445 2.875 10.125 C0.235 9.795 -2.405 9.465 -5.125 9.125 C-5.25 5.75 -5.25 5.75 -5.125 2.125 C-3.125 0.125 -3.125 0.125 0 0 Z " fill="#87878D" transform="translate(523.125,473.875)"/>
<path d="M0 0 C1.65 0.33 3.3 0.66 5 1 C5 3.31 5 5.62 5 8 C3.02 8 1.04 8 -1 8 C-0.67 5.36 -0.34 2.72 0 0 Z " fill="#B6BFCF" transform="translate(703,399)"/>
<path d="M0 0 C1.32 0.33 2.64 0.66 4 1 C4 3.31 4 5.62 4 8 C2.35 8 0.7 8 -1 8 C-2.2077558 4.37673261 -1.54311128 3.35853631 0 0 Z " fill="#8B878D" transform="translate(552,130)"/>
<path d="M0 0 C4.875 0.875 4.875 0.875 6 2 C6.04092937 4.33297433 6.04241723 6.66705225 6 9 C5.34 9 4.68 9 4 9 C4 7.68 4 6.36 4 5 C3.01 5 2.02 5 1 5 C1.33 6.32 1.66 7.64 2 9 C0.68 8.67 -0.64 8.34 -2 8 C-1.67 6.68 -1.34 5.36 -1 4 C0.65 4 2.3 4 4 4 C4 3.34 4 2.68 4 2 C2.35 2 0.7 2 -1 2 C-0.67 1.34 -0.34 0.68 0 0 Z " fill="#4C8D9E" transform="translate(1249,77)"/>
<path d="M0 0 C0.08114106 1.77007714 0.13925505 3.54122098 0.1875 5.3125 C0.22230469 6.29863281 0.25710937 7.28476563 0.29296875 8.30078125 C0 11 0 11 -1.34375 12.84375 C-3.60983805 14.425736 -5.3025585 14.21871147 -8 14 C-8 13.34 -8 12.68 -8 12 C-6.35 11.67 -4.7 11.34 -3 11 C-2.938125 9.72125 -2.87625 8.4425 -2.8125 7.125 C-2.77769531 6.40570313 -2.74289063 5.68640625 -2.70703125 4.9453125 C-2.80371094 4.30335937 -2.90039062 3.66140625 -3 3 C-3.99 2.34 -4.98 1.68 -6 1 C-3.92446352 0.4465236 -2.15634036 0 0 0 Z " fill="#3A7D81" transform="translate(230,77)"/>
<path d="M0 0 C0.66 0 1.32 0 2 0 C2.33 1.32 2.66 2.64 3 4 C3.66 4 4.32 4 5 4 C5.33 6.31 5.66 8.62 6 11 C4 11 2 11 0 11 C0 7.37 0 3.74 0 0 Z " fill="#CCD8DA" transform="translate(740,396)"/>
<path d="M0 0 C0.66 0 1.32 0 2 0 C2 1.32 2 2.64 2 4 C3.65 3.67 5.3 3.34 7 3 C7.33 2.01 7.66 1.02 8 0 C8.66 0 9.32 0 10 0 C10.1875 2.375 10.1875 2.375 10 5 C7 7 7 7 3.875 6.6875 C1 6 1 6 0 5 C-0.04063832 3.33382885 -0.042721 1.66611905 0 0 Z " fill="#307F81" transform="translate(645,83)"/>
<path d="M0 0 C2.45823172 3.68734758 3.01242616 6.69699971 4 11 C3.01 10.34 2.02 9.68 1 9 C-1.62531524 8.83286431 -1.62531524 8.83286431 -4 9 C-3.67 7.02 -3.34 5.04 -3 3 C-2.34 3 -1.68 3 -1 3 C-0.67 2.01 -0.34 1.02 0 0 Z " fill="#4C99A5" transform="translate(748,75)"/>
<path d="M0 0 C4.875 0.875 4.875 0.875 6 2 C6.04092937 4.33297433 6.04241723 6.66705225 6 9 C5.34 9 4.68 9 4 9 C4 7.68 4 6.36 4 5 C3.01 5 2.02 5 1 5 C1.33 6.32 1.66 7.64 2 9 C0.68 8.67 -0.64 8.34 -2 8 C-1.34 6.68 -0.68 5.36 0 4 C1.32 4 2.64 4 4 4 C4 3.34 4 2.68 4 2 C2.35 2 0.7 2 -1 2 C-0.67 1.34 -0.34 0.68 0 0 Z " fill="#458899" transform="translate(329,77)"/>
<path d="M0 0 C1.32 0 2.64 0 4 0 C4 2.64 4 5.28 4 8 C2.02 8.99 2.02 8.99 0 10 C-0.99 9.34 -1.98 8.68 -3 8 C-2.01 8 -1.02 8 0 8 C0 5.36 0 2.72 0 0 Z " fill="#D3F5F7" transform="translate(697,82)"/>
<path d="M0 0 C2.475 0.495 2.475 0.495 5 1 C5 2.98 5 4.96 5 7 C3.35 7.33 1.7 7.66 0 8 C0 5.36 0 2.72 0 0 Z " fill="#E0FCFD" transform="translate(1221,76)"/>
<path d="M0 0 C0.66 0 1.32 0 2 0 C2 1.98 2 3.96 2 6 C2.99 6 3.98 6 5 6 C5 4.02 5 2.04 5 0 C5.66 0 6.32 0 7 0 C7 2.64 7 5.28 7 8 C5.00045254 8.04254356 2.99958364 8.04080783 1 8 C0 7 0 7 -0.0625 3.4375 C-0.041875 2.303125 -0.02125 1.16875 0 0 Z " fill="#CAD2DE" transform="translate(731,399)"/>
<path d="M0 0 C1.65 0.33 3.3 0.66 5 1 C5 2.98 5 4.96 5 7 C3.35 7 1.7 7 0 7 C-0.93423645 3.98968256 -1.04449911 3.13349732 0 0 Z " fill="#868589" transform="translate(608,356)"/>
<path d="M0 0 C0.33 0 0.66 0 1 0 C1 1.65 1 3.3 1 5 C2.98 4.67 4.96 4.34 7 4 C7.33 2.68 7.66 1.36 8 0 C8.66 0 9.32 0 10 0 C10.25 2.3125 10.25 2.3125 10 5 C8.375 6.875 8.375 6.875 6 8 C2.75 7.6875 2.75 7.6875 0 7 C0 4.69 0 2.38 0 0 Z " fill="#348185" transform="translate(659,82)"/>
<path d="M0 0 C0.66 0 1.32 0 2 0 C2.33 1.65 2.66 3.3 3 5 C3.99 5 4.98 5 6 5 C6 7 6 9 6 11 C5.34 11 4.68 11 4 11 C3.67 10.34 3.34 9.68 3 9 C2.67 9.66 2.34 10.32 2 11 C1.34 11 0.68 11 0 11 C0 7.37 0 3.74 0 0 Z " fill="#6F7784" transform="translate(566,473)"/>
<path d="M0 0 C1.32 0.33 2.64 0.66 4 1 C4 3.31 4 5.62 4 8 C2.35 8 0.7 8 -1 8 C-1 4.88742431 -0.82638376 2.89234315 0 0 Z " fill="#868490" transform="translate(529,476)"/>
<path d="M0 0 C1.99954746 -0.04254356 4.00041636 -0.04080783 6 0 C7 1 7 1 7.0625 4.5625 C7.041875 5.696875 7.02125 6.83125 7 8 C6.34 8 5.68 8 5 8 C5 6.02 5 4.04 5 2 C4.01 2 3.02 2 2 2 C2 3.98 2 5.96 2 8 C1.34 8 0.68 8 0 8 C0 5.36 0 2.72 0 0 Z " fill="#78767D" transform="translate(550,285)"/>
<path d="M0 0 C0.66 0 1.32 0 2 0 C2 1.98 2 3.96 2 6 C2.99 6 3.98 6 5 6 C5 4.02 5 2.04 5 0 C5.66 0 6.32 0 7 0 C7 2.64 7 5.28 7 8 C5.02 8 3.04 8 1 8 C-0.35439668 5.29120665 -0.06501451 2.99066732 0 0 Z " fill="#797E86" transform="translate(541,285)"/>
<path d="M0 0 C0.66 0 1.32 0 2 0 C2.33 1.65 2.66 3.3 3 5 C3.66 4.67 4.32 4.34 5 4 C5.33 6.31 5.66 8.62 6 11 C4 11 2 11 0 11 C0 7.37 0 3.74 0 0 Z " fill="#717073" transform="translate(580,127)"/>
<path d="M0 0 C0.66 0.33 1.32 0.66 2 1 C2.625 3.0625 2.625 3.0625 3 5 C4.65 5.33 6.3 5.66 8 6 C8 6.99 8 7.98 8 9 C6.35 9 4.7 9 3 9 C2.67 9.66 2.34 10.32 2 11 C2 9.68 2 8.36 2 7 C0.68 6.67 -0.64 6.34 -2 6 C-1.34 6 -0.68 6 0 6 C0 4.02 0 2.04 0 0 Z " fill="#C5EDEF" transform="translate(219,80)"/>
<path d="M0 0 C1.65 0 3.3 0 5 0 C3.68 0.33 2.36 0.66 1 1 C1 4.3 1 7.6 1 11 C3.49004504 10.43923199 3.49004504 10.43923199 6 9 C7.37189827 5.97017694 7.37189827 5.97017694 8 3 C8.33 3 8.66 3 9 3 C9.125 6.375 9.125 6.375 9 10 C7 12 7 12 3.375 12.125 C2.26125 12.08375 1.1475 12.0425 0 12 C0 8.04 0 4.08 0 0 Z " fill="#2F7D8C" transform="translate(1219,74)"/>
<path d="M0 0 C1.65 0 3.3 0 5 0 C5 0.66 5 1.32 5 2 C4.09507812 2.02900391 4.09507812 2.02900391 3.171875 2.05859375 C0.63382669 2.87433248 0.63382669 2.87433248 -0.484375 6.16015625 C-0.92278489 7.4554582 -1.34407684 8.75665286 -1.75 10.0625 C-1.97042969 10.72572266 -2.19085937 11.38894531 -2.41796875 12.07226562 C-2.95997407 13.71006432 -3.48192502 15.35447496 -4 17 C-4.33 17 -4.66 17 -5 17 C-4.46246904 10.81839396 -2.45417612 5.673142 0 0 Z " fill="#D0EEF1" transform="translate(743,73)"/>
<path d="M0 0 C1.65 0.33 3.3 0.66 5 1 C3.68 1.33 2.36 1.66 1 2 C1 2.66 1 3.32 1 4 C2.32 4.66 3.64 5.32 5 6 C4.67 7.32 4.34 8.64 4 10 C2.35 10 0.7 10 -1 10 C-1 9.34 -1 8.68 -1 8 C0.32 8 1.64 8 3 8 C3 7.34 3 6.68 3 6 C1.68 5.34 0.36 4.68 -1 4 C-0.67 2.68 -0.34 1.36 0 0 Z " fill="#797B79" transform="translate(535,353)"/>
<path d="M0 0 C1.65 0 3.3 0 5 0 C6.35439668 2.70879335 6.06501451 5.00933268 6 8 C5.34 8 4.68 8 4 8 C4 6.02 4 4.04 4 2 C3.34 2 2.68 2 2 2 C2 3.98 2 5.96 2 8 C1.34 8 0.68 8 0 8 C0 5.36 0 2.72 0 0 Z " fill="#797D82" transform="translate(538,130)"/>
<path d="M0 0 C0.99 0 1.98 0 3 0 C3 2.64 3 5.28 3 8 C3.99 8.33 4.98 8.66 6 9 C2.7 9 -0.6 9 -4 9 C-2.68 8.67 -1.36 8.34 0 8 C0 5.36 0 2.72 0 0 Z " fill="#DFF9FC" transform="translate(723,82)"/>
<path d="M0 0 C0.99 0.33 1.98 0.66 3 1 C3 2.98 3 4.96 3 7 C3.66 7.33 4.32 7.66 5 8 C3.34385343 8.38218767 1.67542976 8.71395102 0 9 C-1 8 -1 8 -1.125 4.5 C-1 1 -1 1 0 0 Z " fill="#C2EAED" transform="translate(1205,79)"/>
<path d="M0 0 C5.875 0.875 5.875 0.875 7 2 C7.04063832 3.66617115 7.042721 5.33388095 7 7 C4.69 7 2.38 7 0 7 C0 6.67 0 6.34 0 6 C1.98 6 3.96 6 6 6 C4.93354885 4.70366379 4.93354885 4.70366379 2.4375 4.9375 C1.633125 4.958125 0.82875 4.97875 0 5 C0 3.33333333 0 1.66666667 0 0 Z " fill="#67AEB5" transform="translate(710,79)"/>
<path d="M0 0 C0.99 0.33 1.98 0.66 3 1 C3.09765625 7.15234375 3.09765625 7.15234375 3 9 C2 10 2 10 -0.06640625 10.09765625 C-0.89011719 10.08605469 -1.71382813 10.07445313 -2.5625 10.0625 C-3.38878906 10.05347656 -4.21507812 10.04445313 -5.06640625 10.03515625 C-5.70449219 10.02355469 -6.34257812 10.01195313 -7 10 C-7 9.67 -7 9.34 -7 9 C-4.69 9 -2.38 9 0 9 C0 6.03 0 3.06 0 0 Z " fill="#C2ECEF" transform="translate(273,77)"/>
<path d="M0 0 C0.33 0 0.66 0 1 0 C1 3.3 1 6.6 1 10 C1.66 10.33 2.32 10.66 3 11 C0.03 11 -2.94 11 -6 11 C-5.67 9.68 -5.34 8.36 -5 7 C-4.01 7 -3.02 7 -2 7 C-1.34 4.69 -0.68 2.38 0 0 Z " fill="#BEC0C2" transform="translate(532,282)"/>
<path d="M0 0 C1.65 0 3.3 0 5 0 C6 1 6 1 6.0625 3.5625 C6.041875 4.366875 6.02125 5.17125 6 6 C5.34 5.67 4.68 5.34 4 5 C4.33 4.01 4.66 3.02 5 2 C4.01 2 3.02 2 2 2 C2.2784375 3.1446875 2.2784375 3.1446875 2.5625 4.3125 C3 7 3 7 2 10 C1.34 10 0.68 10 0 10 C0 6.7 0 3.4 0 0 Z " fill="#63616A" transform="translate(519,205)"/>
<path d="M0 0 C0.66 0 1.32 0 2 0 C2 0.99 2 1.98 2 3 C2.99 3.33 3.98 3.66 5 4 C4.67 4.33 4.34 4.66 4 5 C3.95919217 6.99958364 3.95745644 9.00045254 4 11 C3.01 11 2.02 11 1 11 C1 9.35 1 7.7 1 6 C0.01 6 -0.98 6 -2 6 C-2 5.34 -2 4.68 -2 4 C-1.34 4 -0.68 4 0 4 C0 2.68 0 1.36 0 0 Z " fill="#C6EDEE" transform="translate(641,77)"/>
<path d="M0 0 C0.99 0 1.98 0 3 0 C2.979375 0.94875 2.95875 1.8975 2.9375 2.875 C2.77448174 5.90666283 2.77448174 5.90666283 4 8 C1.69 8 -0.62 8 -3 8 C-2.34 7.67 -1.68 7.34 -1 7 C-1.020625 6.030625 -1.04125 5.06125 -1.0625 4.0625 C-1 1 -1 1 0 0 Z " fill="#A9DDE6" transform="translate(320,79)"/>
<path d="M0 0 C1.32 0 2.64 0 4 0 C4 0.66 4 1.32 4 2 C3.01 2.33 2.02 2.66 1 3 C1 4.32 1 5.64 1 7 C1.99 7.66 2.98 8.32 4 9 C1.625 9.125 1.625 9.125 -1 9 C-1.66 8.34 -2.32 7.68 -3 7 C-2.67028521 3.70285207 -2.3773161 2.3773161 0 0 Z " fill="#528FA0" transform="translate(1260,77)"/>
<path d="M0 0 C0.66 0 1.32 0 2 0 C2 1.65 2 3.3 2 5 C2.66 5 3.32 5 4 5 C4 3.35 4 1.7 4 0 C4.66 0 5.32 0 6 0 C6 2.31 6 4.62 6 7 C4.33388095 7.042721 2.66617115 7.04063832 1 7 C0 6 0 6 -0.0625 2.9375 C-0.041875 1.968125 -0.02125 0.99875 0 0 Z " fill="#E5E6EA" transform="translate(564,504)"/>
<path d="M0 0 C0.66 0 1.32 0 2 0 C2 1.65 2 3.3 2 5 C2.66 5 3.32 5 4 5 C4 3.35 4 1.7 4 0 C4.66 0 5.32 0 6 0 C6 2.31 6 4.62 6 7 C4.33388095 7.042721 2.66617115 7.04063832 1 7 C0 6 0 6 -0.0625 2.9375 C-0.041875 1.968125 -0.02125 0.99875 0 0 Z " fill="#76777E" transform="translate(574,477)"/>
<path d="M0 0 C1.65 0.33 3.3 0.66 5 1 C5 2.65 5 4.3 5 6 C3.02 6 1.04 6 -1 6 C-0.67 4.02 -0.34 2.04 0 0 Z " fill="#E5E5EA" transform="translate(538,313)"/>
<path d="M0 0 C0.66 0 1.32 0 2 0 C2 0.99 2 1.98 2 3 C3.32 3.33 4.64 3.66 6 4 C6 5.65 6 7.3 6 9 C5.34 9 4.68 9 4 9 C4 7.35 4 5.7 4 4 C3.34 4 2.68 4 2 4 C2 5.65 2 7.3 2 9 C1.34 9 0.68 9 0 9 C0 6.03 0 3.06 0 0 Z " fill="#E0E3E8" transform="translate(544,310)"/>
<path d="M0 0 C1.66611905 -0.042721 3.33382885 -0.04063832 5 0 C6 1 6 1 6.0625 4.0625 C6.041875 5.031875 6.02125 6.00125 6 7 C5.34 7 4.68 7 4 7 C4 5.35 4 3.7 4 2 C3.34 2 2.68 2 2 2 C2 3.65 2 5.3 2 7 C1.34 7 0.68 7 0 7 C0 4.69 0 2.38 0 0 Z " fill="#7A7982" transform="translate(535,208)"/>
<path d="M0 0 C1.66611905 -0.042721 3.33382885 -0.04063832 5 0 C6 1 6 1 6.0625 4.0625 C6.041875 5.031875 6.02125 6.00125 6 7 C5.34 7 4.68 7 4 7 C4 5.35 4 3.7 4 2 C3.34 2 2.68 2 2 2 C2 3.65 2 5.3 2 7 C1.34 7 0.68 7 0 7 C0 4.69 0 2.38 0 0 Z " fill="#E1E5E8" transform="translate(547,158)"/>
<path d="M0 0 C0.66 0 1.32 0 2 0 C2 1.98 2 3.96 2 6 C2.66 5.67 3.32 5.34 4 5 C4.65555119 2.47266765 4.65555119 2.47266765 5 0 C5.66 0 6.32 0 7 0 C7 2.31 7 4.62 7 7 C5.00045254 7.04254356 2.99958364 7.04080783 1 7 C0 6 0 6 -0.0625 2.9375 C-0.041875 1.968125 -0.02125 0.99875 0 0 Z " fill="#68656E" transform="translate(571,131)"/>
<path d="M0 0 C0.66 0 1.32 0 2 0 C2.33 1.65 2.66 3.3 3 5 C3.33 5 3.66 5 4 5 C4.33 3.35 4.66 1.7 5 0 C5.66 0 6.32 0 7 0 C7 2.31 7 4.62 7 7 C5.02 7 3.04 7 1 7 C0.67 4.69 0.34 2.38 0 0 Z " fill="#666F77" transform="translate(587,131)"/>
<path d="M0 0 C1.65 0.33 3.3 0.66 5 1 C4.67 2.65 4.34 4.3 4 6 C1.03 5.505 1.03 5.505 -2 5 C-1.34 3.35 -0.68 1.7 0 0 Z " fill="#CDC0BE" transform="translate(600,127)"/>
<path d="M0 0 C0.33 0.66 0.66 1.32 1 2 C1.66 2 2.32 2 3 2 C3.33 4.97 3.66 7.94 4 11 C2.68 10.67 1.36 10.34 0 10 C-1.25 6.9375 -1.25 6.9375 -2 4 C-1.34 4 -0.68 4 0 4 C0 2.68 0 1.36 0 0 Z " fill="#BBE3E2" transform="translate(1080,75)"/>
<path d="M0 0 C0.66 0 1.32 0 2 0 C2.33 2.97 2.66 5.94 3 9 C1.35 9.33 -0.3 9.66 -2 10 C-1.34 9.67 -0.68 9.34 0 9 C-0.66 8.01 -1.32 7.02 -2 6 C-1.65394389 3.71602968 -1.03295481 2.06590963 0 0 Z " fill="#CBEEED" transform="translate(1102,77)"/>
<path d="M0 0 C1.32 0 2.64 0 4 0 C4 0.66 4 1.32 4 2 C5.98 1.67 7.96 1.34 10 1 C9.34 1.66 8.68 2.32 8 3 C7.59952556 5.32275177 7.2602896 7.65739357 7 10 C6.01 9.67 5.02 9.34 4 9 C4.0825 8.2575 4.165 7.515 4.25 6.75 C3.92894816 3.21842973 2.64734383 2.23369636 0 0 Z " fill="#D0F3F2" transform="translate(651,78)"/>
<path d="M0 0 C0.99 0.495 0.99 0.495 2 1 C2 2.32 2 3.64 2 5 C2.66 5 3.32 5 4 5 C4 3.35 4 1.7 4 0 C4.66 0 5.32 0 6 0 C6 2.31 6 4.62 6 7 C4.33388095 7.042721 2.66617115 7.04063832 1 7 C0 6 0 6 -0.0625 2.9375 C-0.041875 1.968125 -0.02125 0.99875 0 0 Z " fill="#E3E6E8" transform="translate(578,504)"/>
<path d="M0 0 C0.66 0 1.32 0 2 0 C2 1.65 2 3.3 2 5 C2.66 5 3.32 5 4 5 C4 3.35 4 1.7 4 0 C4.66 0 5.32 0 6 0 C6 2.31 6 4.62 6 7 C4.35 7 2.7 7 1 7 C0.67 4.69 0.34 2.38 0 0 Z " fill="#78787A" transform="translate(541,356)"/>
<path d="M0 0 C0.99 0 1.98 0 3 0 C3 3.3 3 6.6 3 10 C2.01 10 1.02 10 0 10 C0 6.7 0 3.4 0 0 Z " fill="#5D9DAA" transform="translate(1231,77)"/>
<path d="M0 0 C2.64 0 5.28 0 8 0 C7.01 0.495 7.01 0.495 6 1 C6 5.29 6 9.58 6 14 C5.67 14 5.34 14 5 14 C4.67 10.37 4.34 6.74 4 3 C2.68 3 1.36 3 0 3 C0 2.01 0 1.02 0 0 Z " fill="#9FCCD6" transform="translate(1231,72)"/>
<path d="M0 0 C1.32 0.33 2.64 0.66 4 1 C4 2.98 4 4.96 4 7 C2.35 7 0.7 7 -1 7 C-1 5.68 -1 4.36 -1 3 C-0.01 3 0.98 3 2 3 C2 2.34 2 1.68 2 1 C1.34 0.67 0.68 0.34 0 0 Z " fill="#767875" transform="translate(558,356)"/>
<path d="M0 0 C1.67542976 0.28604898 3.34385343 0.61781233 5 1 C5 1.99 5 2.98 5 4 C3.68 4.33 2.36 4.66 1 5 C1.99 5.66 2.98 6.32 4 7 C2.35 6.67 0.7 6.34 -1 6 C-1.042721 4.33388095 -1.04063832 2.66617115 -1 1 C-0.67 0.67 -0.34 0.34 0 0 Z " fill="#76777F" transform="translate(528,208)"/>
<path d="M0 0 C2.475 0.495 2.475 0.495 5 1 C5 2.98 5 4.96 5 7 C3.35 6.67 1.7 6.34 0 6 C0 4 0 2 0 0 Z " fill="#E2E5E8" transform="translate(540,158)"/>
<path d="M0 0 C2.31 1.98 4.62 3.96 7 6 C3.25 9 3.25 9 1 9 C0.67 6.03 0.34 3.06 0 0 Z " fill="#EEEFF0" transform="translate(521,132)"/>
<path d="M0 0 C0.66 0 1.32 0 2 0 C2.66 0.99 3.32 1.98 4 3 C4.99 3.66 5.98 4.32 7 5 C5.35 5 3.7 5 2 5 C2 5.99 2 6.98 2 8 C0.35 8 -1.3 8 -3 8 C-2.34 7.67 -1.68 7.34 -1 7 C-0.59270772 4.67843403 -0.25561323 2.3431213 0 0 Z " fill="#C7F3F8" transform="translate(780,82)"/>
<path d="M0 0 C0.33 0 0.66 0 1 0 C1 5.28 1 10.56 1 16 C0.67 16 0.34 16 0 16 C-0.33 13.69 -0.66 11.38 -1 9 C-1.33 9 -1.66 9 -2 9 C-2 6.69 -2 4.38 -2 2 C-1.34 2 -0.68 2 0 2 C0 1.34 0 0.68 0 0 Z " fill="#BEEFF5" transform="translate(768,79)"/>
<path d="M0 0 C0.33 0 0.66 0 1 0 C1 4.29 1 8.58 1 13 C0.34 13 -0.32 13 -1 13 C-1 10.03 -1 7.06 -1 4 C-2.32 4.33 -3.64 4.66 -5 5 C-5 4.34 -5 3.68 -5 3 C-4.360625 2.87625 -3.72125 2.7525 -3.0625 2.625 C-2.0415625 2.315625 -2.0415625 2.315625 -1 2 C-0.67 1.34 -0.34 0.68 0 0 Z " fill="#D5F3F5" transform="translate(315,73)"/>
<path d="M0 0 C2.875 -0.125 2.875 -0.125 6 0 C6.66 0.66 7.32 1.32 8 2 C7.34 2 6.68 2 6 2 C6 3.32 6 4.64 6 6 C4.68 6 3.36 6 2 6 C1.34 4.02 0.68 2.04 0 0 Z " fill="#84C1BE" transform="translate(142,73)"/>
<path d="M0 0 C2.475 0.495 2.475 0.495 5 1 C5 1.99 5 2.98 5 4 C6.32 4.33 7.64 4.66 9 5 C9 5.66 9 6.32 9 7 C7.02 7 5.04 7 3 7 C3 5.35 3 3.7 3 2 C2.01 2 1.02 2 0 2 C0 1.34 0 0.68 0 0 Z " fill="#CFECF0" transform="translate(1201,71)"/>
<path d="M0 0 C0.99 0.33 1.98 0.66 3 1 C3.125 3.875 3.125 3.875 3 7 C1 9 1 9 -2.625 9.125 C-3.73875 9.08375 -4.8525 9.0425 -6 9 C-6 8.67 -6 8.34 -6 8 C-4.02 8 -2.04 8 0 8 C0 5.36 0 2.72 0 0 Z " fill="#646172" transform="translate(754,399)"/>
<path d="M0 0 C0.33 0 0.66 0 1 0 C1 4.62 1 9.24 1 14 C0.34 14 -0.32 14 -1 14 C-1.93402724 8.58264203 -2.20808081 5.19548425 0 0 Z " fill="#667E8A" transform="translate(709,393)"/>
<path d="M0 0 C0.99 0 1.98 0 3 0 C3 2.64 3 5.28 3 8 C3.66 8.33 4.32 8.66 5 9 C3.35 8.67 1.7 8.34 0 8 C0 5.36 0 2.72 0 0 Z " fill="#549594" transform="translate(1104,77)"/>
<path d="M0 0 C1.65 0.33 3.3 0.66 5 1 C5.5625 2.9375 5.5625 2.9375 6 5 C5 6 5 6 1.4375 6.0625 C0.303125 6.041875 -0.83125 6.02125 -2 6 C-1.34 5.34 -0.68 4.68 0 4 C0 2.68 0 1.36 0 0 Z " fill="#96CFCA" transform="translate(144,81)"/>
<path d="M0 0 C4.455 0.99 4.455 0.99 9 2 C9 2.66 9 3.32 9 4 C7.35 4 5.7 4 4 4 C3.34 5.65 2.68 7.3 2 9 C1.34 8.67 0.68 8.34 0 8 C0.33 7.67 0.66 7.34 1 7 C1.19149081 3.36805359 1.19149081 3.36805359 0 0 Z " fill="#C1F1F7" transform="translate(1244,77)"/>
<path d="M0 0 C0.99 0 1.98 0 3 0 C3 2.64 3 5.28 3 8 C3.66 8.33 4.32 8.66 5 9 C3.35 8.67 1.7 8.34 0 8 C0 5.36 0 2.72 0 0 Z " fill="#54968E" transform="translate(153,77)"/>
<path d="M0 0 C-0.639375 0.12375 -1.27875 0.2475 -1.9375 0.375 C-2.618125 0.58125 -3.29875 0.7875 -4 1 C-4.33 1.66 -4.66 2.32 -5 3 C-5.66 2.67 -6.32 2.34 -7 2 C-7 2.66 -7 3.32 -7 4 C-8.65 4 -10.3 4 -12 4 C-11.67 3.34 -11.34 2.68 -11 2 C-10.34 2 -9.68 2 -9 2 C-8.67 1.01 -8.34 0.02 -8 -1 C-4.37673261 -2.2077558 -3.35853631 -1.54311128 0 0 Z " fill="#DCE1E6" transform="translate(546,238)"/>
<path d="M0 0 C0.66 0 1.32 0 2 0 C2 1.32 2 2.64 2 4 C3.32 4.33 4.64 4.66 6 5 C6 4.34 6 3.68 6 3 C7.32 3.33 8.64 3.66 10 4 C10 4.66 10 5.32 10 6 C6.7 6 3.4 6 0 6 C0 4.02 0 2.04 0 0 Z " fill="#E2E6E9" transform="translate(565,236)"/>
<path d="M0 0 C4 2 4 2 4.75 4.125 C4.8325 4.74375 4.915 5.3625 5 6 C2.525 7.485 2.525 7.485 0 9 C0 6.03 0 3.06 0 0 Z " fill="#F4F7FC" transform="translate(594,131)"/>
<path d="M0 0 C1.65 0.33 3.3 0.66 5 1 C5 2.98 5 4.96 5 7 C4.34 7 3.68 7 3 7 C3 6.01 3 5.02 3 4 C2.01 4 1.02 4 0 4 C0 4.66 0 5.32 0 6 C0.66 6.33 1.32 6.66 2 7 C1.01 7 0.02 7 -1 7 C-1 5.68 -1 4.36 -1 3 C-0.34 2.67 0.32 2.34 1 2 C0.67 1.34 0.34 0.68 0 0 Z " fill="#6F7176" transform="translate(531,131)"/>
<path d="M0 0 C0.99 0 1.98 0 3 0 C3 2.97 3 5.94 3 9 C2.01 9 1.02 9 0 9 C0 6.03 0 3.06 0 0 Z " fill="#528D8B" transform="translate(159,77)"/>
<path d="M0 0 C0 1.32 0 2.64 0 4 C-3 5 -3 5 -6 4 C-6 2.68 -6 1.36 -6 0 C-3 -1 -3 -1 0 0 Z " fill="#79BCC0" transform="translate(247,75)"/>
<path d="M0 0 C1.32 0 2.64 0 4 0 C4 2.31 4 4.62 4 7 C2.68 7 1.36 7 0 7 C0 4.69 0 2.38 0 0 Z " fill="#C1E7ED" transform="translate(267,77)"/>
<path d="M0 0 C2.475 0.495 2.475 0.495 5 1 C5.33 3.31 5.66 5.62 6 8 C7.65 8 9.3 8 11 8 C11 8.33 11 8.66 11 9 C9.02 9 7.04 9 5 9 C5 8.34 5 7.68 5 7 C4.34 6.67 3.68 6.34 3 6 C2.67 5.01 2.34 4.02 2 3 C1.34 2.67 0.68 2.34 0 2 C0 1.34 0 0.68 0 0 Z " fill="#E4E7E7" transform="translate(536,355)"/>
<path d="M0 0 C0.33 0.66 0.66 1.32 1 2 C1.66 2 2.32 2 3 2 C3 2.66 3 3.32 3 4 C3.99 4.33 4.98 4.66 6 5 C4.68 5.33 3.36 5.66 2 6 C2 7.32 2 8.64 2 10 C1.34 10 0.68 10 0 10 C0 6.7 0 3.4 0 0 Z " fill="#DEE0E5" transform="translate(528,128)"/>
<path d="M0 0 C0.33 0 0.66 0 1 0 C1 2.97 1 5.94 1 9 C-1.64 8.67 -4.28 8.34 -7 8 C-6.34 6.68 -5.68 5.36 -5 4 C-4.01 4 -3.02 4 -2 4 C-2 4.99 -2 5.98 -2 7 C-1.34 7 -0.68 7 0 7 C0 4.69 0 2.38 0 0 Z " fill="#9CCED0" transform="translate(207,79)"/>
<path d="M0 0 C-0.33 0.99 -0.66 1.98 -1 3 C-1.7425 2.95875 -2.485 2.9175 -3.25 2.875 C-6.08758952 3.00398134 -7.58773938 3.57051222 -10 5 C-10.66 4.01 -11.32 3.02 -12 2 C-7.82262526 0.40861915 -4.46839215 -0.21278058 0 0 Z " fill="#E3FBFC" transform="translate(790,77)"/>
<path d="M0 0 C1.65 0.33 3.3 0.66 5 1 C5 2.98 5 4.96 5 7 C4.67 6.01 4.34 5.02 4 4 C3.01 4 2.02 4 1 4 C1 4.99 1 5.98 1 7 C0.34 7 -0.32 7 -1 7 C-0.67 4.69 -0.34 2.38 0 0 Z " fill="#6E7177" transform="translate(526,285)"/>
<path d="M0 0 C0.99 0 1.98 0 3 0 C3.33 1.32 3.66 2.64 4 4 C4.33 2.68 4.66 1.36 5 0 C5.66 2.64 6.32 5.28 7 8 C6.34 8 5.68 8 5 8 C5 7.01 5 6.02 5 5 C3.35 4.67 1.7 4.34 0 4 C0 2.68 0 1.36 0 0 Z " fill="#BEC1C7" transform="translate(521,207)"/>
<path d="M0 0 C1.32 0 2.64 0 4 0 C4 2.33333333 4 4.66666667 4 7 C2.35 7 0.7 7 -1 7 C-0.01 6.67 0.98 6.34 2 6 C2 5.34 2 4.68 2 4 C1.01 4 0.02 4 -1 4 C-0.67 2.68 -0.34 1.36 0 0 Z " fill="#7A7D85" transform="translate(560,208)"/>
<path d="M0 0 C1.66611905 -0.042721 3.33382885 -0.04063832 5 0 C6 1 6 1 6.0625 4.0625 C6.041875 5.031875 6.02125 6.00125 6 7 C5.67 7 5.34 7 5 7 C4.67 5.35 4.34 3.7 4 2 C3.67 2 3.34 2 3 2 C2.67 3.65 2.34 5.3 2 7 C1.34 7 0.68 7 0 7 C0 4.69 0 2.38 0 0 Z " fill="#DFE2E4" transform="translate(533,158)"/>
<path d="M0 0 C1.65 0 3.3 0 5 0 C5 1.65 5 3.3 5 5 C3.35 5 1.7 5 0 5 C0 3.35 0 1.7 0 0 Z " fill="#CAF2F3" transform="translate(661,82)"/>
<path d="M0 0 C1.67542976 0.28604898 3.34385343 0.61781233 5 1 C5 2.32 5 3.64 5 5 C3.35 5 1.7 5 0 5 C-0.5625 3.0625 -0.5625 3.0625 -1 1 C-0.67 0.67 -0.34 0.34 0 0 Z " fill="#65A9B2" transform="translate(1192,81)"/>
<path d="M0 0 C1.99954746 -0.04254356 4.00041636 -0.04080783 6 0 C7 1 7 1 7.0625 4.0625 C7.041875 5.031875 7.02125 6.00125 7 7 C6.01 7 5.02 7 4 7 C4 5.68 4 4.36 4 3 C2.68 2.34 1.36 1.68 0 1 C0 0.67 0 0.34 0 0 Z " fill="#C8F0F5" transform="translate(785,82)"/>
<path d="M0 0 C1.67542976 0.28604898 3.34385343 0.61781233 5 1 C5 2.32 5 3.64 5 5 C3.35 5 1.7 5 0 5 C-0.5625 3.0625 -0.5625 3.0625 -1 1 C-0.67 0.67 -0.34 0.34 0 0 Z " fill="#65ABBC" transform="translate(347,81)"/>
<path d="M0 0 C2.31 0 4.62 0 7 0 C7 0.99 7 1.98 7 3 C5.35 3 3.7 3 2 3 C2 3.66 2 4.32 2 5 C3.32 5.33 4.64 5.66 6 6 C4.33388095 6.042721 2.66617115 6.04063832 1 6 C0 5 0 5 -0.0625 2.4375 C-0.041875 1.633125 -0.02125 0.82875 0 0 Z " fill="#38828A" transform="translate(1177,80)"/>
<path d="M0 0 C0.66 0 1.32 0 2 0 C2 2.31 2 4.62 2 7 C0.35 7.33 -1.3 7.66 -3 8 C-2.01 7.67 -1.02 7.34 0 7 C0 6.34 0 5.68 0 5 C-0.99 5 -1.98 5 -3 5 C-3 4.01 -3 3.02 -3 2 C-2.01 2 -1.02 2 0 2 C0 1.34 0 0.68 0 0 Z " fill="#E9EBED" transform="translate(606,356)"/>
<path d="M0 0 C0.391875 0.495 0.78375 0.99 1.1875 1.5 C3.55091715 3.45593143 5.01435003 3.24207973 8 3 C7.01 3.495 7.01 3.495 6 4 C6 5.32 6 6.64 6 8 C3.5625 7.375 3.5625 7.375 1 6 C0.1875 2.875 0.1875 2.875 0 0 Z " fill="#ECEFF2" transform="translate(583,155)"/>
<path d="M0 0 C1.32 0 2.64 0 4 0 C4 1.65 4 3.3 4 5 C2.35 5 0.7 5 -1 5 C-0.67 3.35 -0.34 1.7 0 0 Z " fill="#C0EEF5" transform="translate(773,82)"/>
<path d="M0 0 C1.2065625 0.0309375 1.2065625 0.0309375 2.4375 0.0625 C1.4475 0.7225 0.4575 1.3825 -0.5625 2.0625 C-0.5625 3.3825 -0.5625 4.7025 -0.5625 6.0625 C0.4275 6.7225 1.4175 7.3825 2.4375 8.0625 C0.77138095 8.105221 -0.89632885 8.10313832 -2.5625 8.0625 C-3.5625 7.0625 -3.5625 7.0625 -3.6875 4.0625 C-3.52180824 0.08589776 -3.52180824 0.08589776 0 0 Z " fill="#45899C" transform="translate(341.5625,77.9375)"/>
<path d="M0 0 C0.99 0 1.98 0 3 0 C3 1.32 3 2.64 3 4 C4.65 4 6.3 4 8 4 C8 5.32 8 6.64 8 8 C5.03 7.505 5.03 7.505 2 7 C0.875 3.25 0.875 3.25 2 1 C1.34 0.67 0.68 0.34 0 0 Z " fill="#A7D7D9" transform="translate(1127,73)"/>
<path d="M0 0 C1.65 0 3.3 0 5 0 C5 0.66 5 1.32 5 2 C4.01 2.495 4.01 2.495 3 3 C2.34444881 5.52733235 2.34444881 5.52733235 2 8 C1.34 8 0.68 8 0 8 C0 5.36 0 2.72 0 0 Z " fill="#87878F" transform="translate(535,476)"/>
<path d="M0 0 C1.32 0 2.64 0 4 0 C4 1.65 4 3.3 4 5 C2.68 5.33 1.36 5.66 0 6 C0 4.02 0 2.04 0 0 Z " fill="#DFE5E7" transform="translate(576,355)"/>
<path d="M0 0 C0.99 0 1.98 0 3 0 C3 0.66 3 1.32 3 2 C2.01 2 1.02 2 0 2 C0 2.99 0 3.98 0 5 C0.99 5 1.98 5 3 5 C3 5.66 3 6.32 3 7 C1.35 7 -0.3 7 -2 7 C-2.125 4.625 -2.125 4.625 -2 2 C-1.34 1.34 -0.68 0.68 0 0 Z " fill="#848A8F" transform="translate(603,356)"/>
<path d="M0 0 C1.32 0 2.64 0 4 0 C4.33 1.98 4.66 3.96 5 6 C3.35 6 1.7 6 0 6 C0 4.02 0 2.04 0 0 Z " fill="#EFF2F6" transform="translate(542,235)"/>
<path d="M0 0 C0.33 0 0.66 0 1 0 C1 3.63 1 7.26 1 11 C0.34 11 -0.32 11 -1 11 C-1 8.69 -1 6.38 -1 4 C-1.66 3.67 -2.32 3.34 -3 3 C-2.34 3 -1.68 3 -1 3 C-0.67 2.01 -0.34 1.02 0 0 Z " fill="#DEE1E1" transform="translate(579,127)"/>
<path d="M0 0 C2.475 0.495 2.475 0.495 5 1 C4.67 2.32 4.34 3.64 4 5 C2.68 5 1.36 5 0 5 C0 3.35 0 1.7 0 0 Z " fill="#CEF4F3" transform="translate(648,82)"/>
<path d="M0 0 C1.99954746 -0.04254356 4.00041636 -0.04080783 6 0 C7 1 7 1 7.0625 4.5625 C7.041875 5.696875 7.02125 6.83125 7 8 C6.34 8 5.68 8 5 8 C5 6.68 5 5.36 5 4 C4.01 3.67 3.02 3.34 2 3 C2.99 3 3.98 3 5 3 C5 2.34 5 1.68 5 1 C3.35 1 1.7 1 0 1 C0 0.67 0 0.34 0 0 Z " fill="#367A7E" transform="translate(1130,78)"/>
<path d="M0 0 C0.66 0 1.32 0 2 0 C2 1.65 2 3.3 2 5 C2.66 5.33 3.32 5.66 4 6 C3.34 7.98 2.68 9.96 2 12 C1.34 11.67 0.68 11.34 0 11 C-0.625 7.9375 -0.625 7.9375 -1 5 C-0.34 5 0.32 5 1 5 C0.67 3.35 0.34 1.7 0 0 Z " fill="#BAE5EC" transform="translate(246,74)"/>
<path d="M0 0 C1.32 0.33 2.64 0.66 4 1 C3.01 1 2.02 1 1 1 C1 4.3 1 7.6 1 11 C0.67 9.68 0.34 8.36 0 7 C-1.9837767 5.71563266 -1.9837767 5.71563266 -4 5 C-2.68 4.67 -1.36 4.34 0 4 C0 2.68 0 1.36 0 0 Z " fill="#D9F5F7" transform="translate(258,72)"/>
<path d="M0 0 C1.32 0 2.64 0 4 0 C4.33 1.65 4.66 3.3 5 5 C3.35 5 1.7 5 0 5 C-0.33 4.34 -0.66 3.68 -1 3 C-0.67 2.01 -0.34 1.02 0 0 Z " fill="#ABABA9" transform="translate(550,358)"/>
<path d="M0 0 C2.31 0 4.62 0 7 0 C7 0.66 7 1.32 7 2 C6.01 2 5.02 2 4 2 C4 4.64 4 7.28 4 10 C3.67 10 3.34 10 3 10 C3 7.36 3 4.72 3 2 C2.01 2 1.02 2 0 2 C0 1.34 0 0.68 0 0 Z " fill="#707072" transform="translate(518,282)"/>
<path d="M0 0 C1.65 0 3.3 0 5 0 C4.01 0.495 4.01 0.495 3 1 C3.33 3.31 3.66 5.62 4 8 C3.01 7.67 2.02 7.34 1 7 C0.67 4.69 0.34 2.38 0 0 Z " fill="#DADCDC" transform="translate(584,130)"/>
<path d="M0 0 C2.31 0 4.62 0 7 0 C6.67 0.99 6.34 1.98 6 3 C4.35 3 2.7 3 1 3 C0.67 3.66 0.34 4.32 0 5 C0 3.35 0 1.7 0 0 Z " fill="#D1F1F5" transform="translate(1150,86)"/>
<path d="M0 0 C3 4 3 4 3.07421875 6.140625 C2.71614583 8.09375 2.35807292 10.046875 2 12 C1.34 12 0.68 12 0 12 C0 8.04 0 4.08 0 0 Z " fill="#1F778B" transform="translate(756,83)"/>
<path d="M0 0 C1.98 0 3.96 0 6 0 C6 2.64 6 5.28 6 8 C5.34 8 4.68 8 4 8 C3.67 6.02 3.34 4.04 3 2 C2.01 2 1.02 2 0 2 C0 1.34 0 0.68 0 0 Z " fill="#488B99" transform="translate(1204,78)"/>
<path d="M0 0 C1.98 0 3.96 0 6 0 C5.67 1.32 5.34 2.64 5 4 C3.35 4 1.7 4 0 4 C0 2.68 0 1.36 0 0 Z " fill="#E7FCFD" transform="translate(1260,80)"/>
<path d="M0 0 C2.475 0.99 2.475 0.99 5 2 C4.979375 2.78375 4.95875 3.5675 4.9375 4.375 C4.81315937 6.98114961 4.81315937 6.98114961 6 9 C4.68 9 3.36 9 2 9 C1.855625 7.88625 1.71125 6.7725 1.5625 5.625 C1.21627965 2.17857953 1.21627965 2.17857953 0 0 Z " fill="#BAEAF2" transform="translate(1253,77)"/>
<path d="M0 0 C0.99 0.495 0.99 0.495 2 1 C2 1.66 2 2.32 2 3 C4.64 3.33 7.28 3.66 10 4 C9.01 4.495 9.01 4.495 8 5 C7.67 5.66 7.34 6.32 7 7 C6.34 6.34 5.68 5.68 5 5 C2.41645782 4.83312552 2.41645782 4.83312552 0 5 C0 3.35 0 1.7 0 0 Z " fill="#CAEFF5" transform="translate(319,73)"/>
<path d="M0 0 C0.99 0 1.98 0 3 0 C3 1.98 3 3.96 3 6 C1.35 6.33 -0.3 6.66 -2 7 C-1.34 6.67 -0.68 6.34 0 6 C0 4.02 0 2.04 0 0 Z " fill="#EAE9EA" transform="translate(552,287)"/>
<path d="M0 0 C0.66 0 1.32 0 2 0 C2 3.3 2 6.6 2 10 C1.01 9.67 0.02 9.34 -1 9 C-0.67 6.03 -0.34 3.06 0 0 Z " fill="#545069" transform="translate(526,128)"/>
<path d="M0 0 C0 0.99 0 1.98 0 3 C-0.928125 3.4021875 -0.928125 3.4021875 -1.875 3.8125 C-4.2995233 4.95556848 -4.2995233 4.95556848 -6 8 C-6 5.69 -6 3.38 -6 1 C-4.02 0.67 -2.04 0.34 0 0 Z " fill="#CDF2F7" transform="translate(765,88)"/>
<path d="M0 0 C0.99 0 1.98 0 3 0 C3 2.31 3 4.62 3 7 C2.01 7 1.02 7 0 7 C0 4.69 0 2.38 0 0 Z " fill="#CFF3F5" transform="translate(213,79)"/>
<path d="M0 0 C0.99 0 1.98 0 3 0 C3 2.31 3 4.62 3 7 C2.01 7 1.02 7 0 7 C0 4.69 0 2.38 0 0 Z " fill="#D1F7F9" transform="translate(1107,77)"/>
<path d="M0 0 C0.99 0.33 1.98 0.66 3 1 C2.01 2.485 2.01 2.485 1 4 C2.65 4 4.3 4 6 4 C6.33 3.34 6.66 2.68 7 2 C7 2.99 7 3.98 7 5 C4.36 5.33 1.72 5.66 -1 6 C-1.042721 4.33388095 -1.04063832 2.66617115 -1 1 C-0.67 0.67 -0.34 0.34 0 0 Z " fill="#257781" transform="translate(709,80)"/>
<path d="M0 0 C2.31 0.33 4.62 0.66 7 1 C7 3.64 7 6.28 7 9 C6.67 9 6.34 9 6 9 C5.855625 8.21625 5.71125 7.4325 5.5625 6.625 C5.12201075 4.03578982 5.12201075 4.03578982 4 2 C2.68 2 1.36 2 0 2 C0 1.34 0 0.68 0 0 Z " fill="#6BA4AF" transform="translate(1267,77)"/>
<path d="M0 0 C0.99 0 1.98 0 3 0 C3 2.31 3 4.62 3 7 C2.01 7 1.02 7 0 7 C0 4.69 0 2.38 0 0 Z " fill="#D4F4F4" transform="translate(1085,77)"/>
<path d="M0 0 C0.99 1.485 0.99 1.485 2 3 C2.99 3 3.98 3 5 3 C4.67 4.65 4.34 6.3 4 8 C2.68 8 1.36 8 0 8 C0 5.36 0 2.72 0 0 Z " fill="#DADEE3" transform="translate(572,502)"/>
<path d="M0 0 C1.65 1.65 3.3 3.3 5 5 C3.02 5.99 3.02 5.99 1 7 C0.67 6.01 0.34 5.02 0 4 C-1.65 3.67 -3.3 3.34 -5 3 C-5 2.67 -5 2.34 -5 2 C-3.35 2 -1.7 2 0 2 C0 1.34 0 0.68 0 0 Z " fill="#E2E3E6" transform="translate(526,474)"/>
<path d="M0 0 C0.33 0.99 0.66 1.98 1 3 C3.01508358 3.73323796 3.01508358 3.73323796 5 4 C5 4.66 5 5.32 5 6 C4.01 6.33 3.02 6.66 2 7 C1.34 7.66 0.68 8.32 0 9 C0 6.03 0 3.06 0 0 Z " fill="#D0D0D4" transform="translate(555,353)"/>
<path d="M0 0 C2.76223278 2.76223278 2.57856291 5.20706617 3 9 C2.01 9.495 2.01 9.495 1 10 C0.34 9.34 -0.32 8.68 -1 8 C-0.96712417 5.27130593 -0.43602229 2.7033382 0 0 Z " fill="#DEDEE9" transform="translate(569,129)"/>
<path d="M0 0 C1.32 0 2.64 0 4 0 C4 1.65 4 3.3 4 5 C2.68 5 1.36 5 0 5 C0 3.35 0 1.7 0 0 Z " fill="#CDF7FA" transform="translate(759,82)"/>
<path d="M0 0 C0.33 0.66 0.66 1.32 1 2 C1.99 2.33 2.98 2.66 4 3 C3.01 3.495 3.01 3.495 2 4 C1.01 5.485 1.01 5.485 0 7 C-0.99 7.495 -0.99 7.495 -2 8 C-1.125 1.125 -1.125 1.125 0 0 Z " fill="#D8F9F8" transform="translate(1128,78)"/>
<path d="M0 0 C0.99 0 1.98 0 3 0 C3 1.32 3 2.64 3 4 C3.66 4.33 4.32 4.66 5 5 C2.36 5 -0.28 5 -3 5 C-2.67 4.34 -2.34 3.68 -2 3 C-1.34 3 -0.68 3 0 3 C0 2.01 0 1.02 0 0 Z " fill="#95CFDF" transform="translate(1250,82)"/>
<path d="M0 0 C0.66 0 1.32 0 2 0 C2.144375 1.11375 2.28875 2.2275 2.4375 3.375 C2.78372035 6.82142047 2.78372035 6.82142047 4 9 C2.68 8.67 1.36 8.34 0 8 C0 5.36 0 2.72 0 0 Z " fill="#488580" transform="translate(1083,77)"/>
<path d="M0 0 C1.32 0.33 2.64 0.66 4 1 C4 3.31 4 5.62 4 8 C3.01 8.495 3.01 8.495 2 9 C2 6.69 2 4.38 2 2 C1.34 2 0.68 2 0 2 C0 1.34 0 0.68 0 0 Z " fill="#3E8495" transform="translate(305,75)"/>
<path d="M0 0 C0.99 0 1.98 0 3 0 C3 2.31 3 4.62 3 7 C2.01 7 1.02 7 0 7 C0 4.69 0 2.38 0 0 Z " fill="#D9F8F9" transform="translate(156,77)"/>
<path d="M0 0 C0.99 0.495 0.99 0.495 2 1 C2 1.66 2 2.32 2 3 C2.99 2.67 3.98 2.34 5 2 C5.33 2.99 5.66 3.98 6 5 C4.02 5.66 2.04 6.32 0 7 C0 4.69 0 2.38 0 0 Z " fill="#D5F6F9" transform="translate(697,74)"/>
<path d="M0 0 C2.16874252 0.50603992 3.99967627 0.99983813 6 2 C5.67 3.32 5.34 4.64 5 6 C4.67 5.34 4.34 4.68 4 4 C2.68 4 1.36 4 0 4 C0 2.68 0 1.36 0 0 Z " fill="#77B6BE" transform="translate(252,77)"/>
<path d="M0 0 C1.98 0.495 1.98 0.495 4 1 C3.34 1 2.68 1 2 1 C2 1.66 2 2.32 2 3 C2.66 3.33 3.32 3.66 4 4 C2.68 4 1.36 4 0 4 C0 5.98 0 7.96 0 10 C-0.33 10 -0.66 10 -1 10 C-1.125 2.25 -1.125 2.25 0 0 Z " fill="#C6ECEE" transform="translate(310,72)"/>
<path d="M0 0 C2.475 0.495 2.475 0.495 5 1 C5 2.98 5 4.96 5 7 C4.34 7 3.68 7 3 7 C3 5.35 3 3.7 3 2 C2.01 2 1.02 2 0 2 C0 1.34 0 0.68 0 0 Z " fill="#D0DEE5" transform="translate(703,399)"/>
<path d="M0 0 C0.99 0.33 1.98 0.66 3 1 C3 2.32 3 3.64 3 5 C1.68 5 0.36 5 -1 5 C-1.33 3.68 -1.66 2.36 -2 1 C-1.34 0.67 -0.68 0.34 0 0 Z " fill="#A99E9D" transform="translate(571,205)"/>
<path d="M0 0 C1.65 0.33 3.3 0.66 5 1 C4.67 2.32 4.34 3.64 4 5 C4 4.01 4 3.02 4 2 C3.01 2 2.02 2 1 2 C1 2.66 1 3.32 1 4 C1.66 4.33 2.32 4.66 3 5 C1.68 5 0.36 5 -1 5 C-0.67 3.35 -0.34 1.7 0 0 Z " fill="#559698" transform="translate(201,81)"/>
<path d="M0 0 C0.66 0 1.32 0 2 0 C2.33 1.98 2.66 3.96 3 6 C1.68 6 0.36 6 -1 6 C-0.67 4.02 -0.34 2.04 0 0 Z " fill="#92DCE8" transform="translate(745,78)"/>
<path d="M0 0 C0 0.66 0 1.32 0 2 C-4.75 3.125 -4.75 3.125 -7 2 C-7 1.34 -7 0.68 -7 0 C-4.3333581 -1.33332095 -2.83319697 -0.67102033 0 0 Z " fill="#45858C" transform="translate(691,80)"/>
<path d="M0 0 C0.99 0 1.98 0 3 0 C3 1.65 3 3.3 3 5 C1.68 5 0.36 5 -1 5 C-0.67 3.35 -0.34 1.7 0 0 Z " fill="#C1F0F9" transform="translate(1240,79)"/>
<path d="M0 0 C2.31 0 4.62 0 7 0 C7 0.99 7 1.98 7 3 C5.02 3.33 3.04 3.66 1 4 C0.67 2.68 0.34 1.36 0 0 Z " fill="#468D9C" transform="translate(771,79)"/>
<path d="M0 0 C0.33 0.66 0.66 1.32 1 2 C2.65 1.67 4.3 1.34 6 1 C6 1.66 6 2.32 6 3 C3.09399739 4.25664978 1.20395416 5 -2 5 C-2 4.01 -2 3.02 -2 2 C-1.34 2 -0.68 2 0 2 C0 1.34 0 0.68 0 0 Z " fill="#DDFCFE" transform="translate(345,78)"/>
<path d="M0 0 C0.99 0 1.98 0 3 0 C3 2.64 3 5.28 3 8 C2.67 8 2.34 8 2 8 C2 6.35 2 4.7 2 3 C0.68 3.99 -0.64 4.98 -2 6 C-1.49396008 3.83125748 -1.00016187 2.00032373 0 0 Z " fill="#A9DBDB" transform="translate(172,77)"/>
<path d="M0 0 C0.99 0 1.98 0 3 0 C3.33 2.64 3.66 5.28 4 8 C2.68 7.67 1.36 7.34 0 7 C0.2784375 6.1028125 0.2784375 6.1028125 0.5625 5.1875 C1.22093687 2.83591238 1.22093687 2.83591238 0 0 Z " fill="#C4E6E6" transform="translate(198,72)"/>
<path d="M0 0 C0.33 0 0.66 0 1 0 C1.33 2.31 1.66 4.62 2 7 C0.68 6.67 -0.64 6.34 -2 6 C-1.125 1.125 -1.125 1.125 0 0 Z " fill="#F1F5F8" transform="translate(577,504)"/>
<path d="M0 0 C0.66 0.33 1.32 0.66 2 1 C-0.475 4.465 -0.475 4.465 -3 8 C-3.66 7.67 -4.32 7.34 -5 7 C-3.70700306 4.11562221 -2.34058637 2.12780579 0 0 Z " fill="#6F7785" transform="translate(658,385)"/>
<path d="M0 0 C0.66 0 1.32 0 2 0 C2.33 2.31 2.66 4.62 3 7 C2.01 7.33 1.02 7.66 0 8 C0 5.36 0 2.72 0 0 Z " fill="#E2E3E7" transform="translate(533,311)"/>
<path d="M0 0 C0.99 0.33 1.98 0.66 3 1 C3 2.32 3 3.64 3 5 C1.68 5 0.36 5 -1 5 C-0.67 3.35 -0.34 1.7 0 0 Z " fill="#AB9FA3" transform="translate(564,282)"/>
<path d="M0 0 C4 4.75 4 4.75 4 7 C2.68 7.33 1.36 7.66 0 8 C0 5.36 0 2.72 0 0 Z " fill="#DCDFE3" transform="translate(583,157)"/>
<path d="M0 0 C0.99 0.33 1.98 0.66 3 1 C3 2.32 3 3.64 3 5 C1.68 5 0.36 5 -1 5 C-0.67 3.35 -0.34 1.7 0 0 Z " fill="#CCF6F8" transform="translate(1154,79)"/>
<path d="M0 0 C0.99 0.66 1.98 1.32 3 2 C3 2.66 3 3.32 3 4 C2.34 4 1.68 4 1 4 C1 5.98 1 7.96 1 10 C0.67 10 0.34 10 0 10 C-0.144375 8.88625 -0.28875 7.7725 -0.4375 6.625 C-0.78372035 3.17857953 -0.78372035 3.17857953 -2 1 C-1.34 0.67 -0.68 0.34 0 0 Z " fill="#D8F5FA" transform="translate(354,76)"/>
<path d="M0 0 C3.3 0 6.6 0 10 0 C10.33 1.32 10.66 2.64 11 4 C10.484375 3.690625 9.96875 3.38125 9.4375 3.0625 C6.33334577 1.70940713 3.34884993 1.38640576 0 1 C0 0.67 0 0.34 0 0 Z " fill="#E5F9FA" transform="translate(632,73)"/>
<path d="M0 0 C0.33 0 0.66 0 1 0 C2.125 5.75 2.125 5.75 1 8 C0.01 7.67 -0.98 7.34 -2 7 C-1.34 7 -0.68 7 0 7 C-0.66 5.35 -1.32 3.7 -2 2 C-1.34 1.34 -0.68 0.68 0 0 Z " fill="#5C6A75" transform="translate(746,400)"/>
<path d="M0 0 C0.99 0 1.98 0 3 0 C2.67 3.63 2.34 7.26 2 11 C1.67 11 1.34 11 1 11 C0.67 7.37 0.34 3.74 0 0 Z " fill="#9792A0" transform="translate(555,204)"/>
<path d="M0 0 C0.99 0.33 1.98 0.66 3 1 C2.34 1 1.68 1 1 1 C1 2.65 1 4.3 1 6 C0.01 6 -0.98 6 -2 6 C-2 4.35 -2 2.7 -2 1 C-1.34 0.67 -0.68 0.34 0 0 Z " fill="#DDE2E7" transform="translate(591,130)"/>
<path d="M0 0 C1.32 1.32 2.64 2.64 4 4 C2 6 2 6 -0.625 6.125 C-1.40875 6.08375 -2.1925 6.0425 -3 6 C-2.01 5.67 -1.02 5.34 0 5 C0 3.35 0 1.7 0 0 Z " fill="#C0EEF0" transform="translate(675,85)"/>
<path d="M0 0 C1.98 0 3.96 0 6 0 C6.33 1.32 6.66 2.64 7 4 C4.69 3.67 2.38 3.34 0 3 C0 2.01 0 1.02 0 0 Z " fill="#AADCE4" transform="translate(743,86)"/>
<path d="M0 0 C0.66 0 1.32 0 2 0 C3.35439668 2.70879335 3.06501451 5.00933268 3 8 C2.34 7.67 1.68 7.34 1 7 C0.59270772 4.67843403 0.25561323 2.3431213 0 0 Z " fill="#34879A" transform="translate(756,79)"/>
<path d="M0 0 C0.99 0.33 1.98 0.66 3 1 C2.67 2.98 2.34 4.96 2 7 C1.01 7.33 0.02 7.66 -1 8 C-1.04241723 5.66705225 -1.04092937 3.33297433 -1 1 C-0.67 0.67 -0.34 0.34 0 0 Z " fill="#4B949B" transform="translate(659,80)"/>
<path d="M0 0 C0.66 0 1.32 0 2 0 C2 2.31 2 4.62 2 7 C1.67 5.68 1.34 4.36 1 3 C0.34 3 -0.32 3 -1 3 C-1.33 4.32 -1.66 5.64 -2 7 C-2.125 4.625 -2.125 4.625 -2 2 C-1.34 1.34 -0.68 0.68 0 0 Z " fill="#5CA4A5" transform="translate(646,80)"/>
<path d="M0 0 C2.97 0.495 2.97 0.495 6 1 C5.01 1.66 4.02 2.32 3 3 C2.67 3.99 2.34 4.98 2 6 C1.01 5.67 0.02 5.34 -1 5 C-0.67 3.35 -0.34 1.7 0 0 Z " fill="#CAEEEC" transform="translate(150,75)"/>
<path d="M0 0 C-0.33 0.99 -0.66 1.98 -1 3 C-1.99 2.67 -2.98 2.34 -4 2 C-4 4.31 -4 6.62 -4 9 C-4.33 9 -4.66 9 -5 9 C-5.33 6.36 -5.66 3.72 -6 1 C-3 0 -3 0 0 0 Z " fill="#6CA6B2" transform="translate(289,77)"/>
</svg>
